<svg xmlns="http://www.w3.org/2000/svg">
<defs>
<font id="DKSmilingCat" horiz-adv-x="1003" >
  <font-face 
    font-family="DK Smiling Cat"
    font-weight="400"
    font-stretch="normal"
    units-per-em="2048"
    panose-1="2 5 5 1 4 1 2 2 1 4"
    ascent="1638"
    descent="-410"
    x-height="819"
    cap-height="1436"
    bbox="-66 -598 2514.12 1956"
    underline-thickness="102"
    underline-position="-307"
    unicode-range="U+000D-20AC"
  />
<missing-glyph horiz-adv-x="2617" 
d="M492 772l6 21q10 40 17 61t20.5 53.5t33.5 54t47 35.5q-1 46 -4.5 95t-9.5 115t-8 96q-1 12 -1.5 55.5t-6.5 66.5q0 29 30 19q49 -20 117.5 -73t106.5 -99l10 -14q10 -14 21 -29t24.5 -32t25.5 -30t19 -16q20 -8 111.5 15t105.5 24q170 12 338 -23q16 -3 48 -11.5
t50 -10.5q4 0 14.5 9t22.5 21.5t22.5 25.5t18.5 23l8 9q13 14 54 63t74.5 82t66.5 52q16 10 29 -3q20 -27 24 -90.5t-2 -124t-6.5 -117.5t10.5 -71q19 -26 49 -63.5t40.5 -53t24.5 -48t25 -79.5q72 37 172.5 68t169.5 43q15 0 17 -12.5t-10 -18.5q-64 -10 -167.5 -42.5
t-174.5 -69.5q12 -66 16 -101q23 5 141.5 40t186.5 40q15 0 16.5 -12.5t-10.5 -18.5q-66 -5 -181.5 -39t-148.5 -41q6 -46 6 -86h10q373 0 400 -51q8 -14 -4.5 -21t-22.5 5l-2 6h-6q-196 28 -373 31v-21q0 -95 -28.5 -172t-74 -130t-114 -92.5t-138 -62t-158 -36.5t-162 -19
t-160.5 -6q-54 -2 -121.5 0t-130 7.5t-126.5 24t-112 48.5q-92 58 -166 166t-110 233q-20 -6 -55 -20t-65 -23t-58 -12q-10 0 -15.5 7t-3 14.5t11.5 9.5q28 3 56 11t68.5 24t52.5 20l-13 55q-59 -1 -178 -5t-180 -5q-15 0 -18 14t12 17q61 1 181 5t179 5q-7 61 -4 107
q-35 9 -101 20.5t-87 15.5q-74 17 -109 13q-15 0 -18 13.5t12 16.5q46 5 137 -9.5t170 -39.5q2 22 15 78zM571 489q15 0 17 -12t-10 -18l-41 -6q41 -127 113.5 -236.5t150.5 -144.5q171 -78 467 -74q219 3 387 37q406 76 413 465h-10q-15 4 -12 17t18 13h4l-6 80
q-24 -4 -34 -4t-15.5 7t-3 14.5t11.5 9.5q13 0 37 4q-3 19 -16 88q-19 -11 -35 -27q-12 -10 -21.5 -0.5t-0.5 21.5q26 26 51 39l-17 55q-18 58 -41 92q-8 12 -44 46.5t-40 54.5q-16 65 -10 189.5t-4 189.5q-26 -25 -53 -53.5t-60 -65.5t-51 -56l-8 -6q-9 -9 -28.5 -32.5

<glyph glyph-name=".notdef" horiz-adv-x="2617" 
d="M492 772l6 21q10 40 17 61t20.5 53.5t33.5 54t47 35.5q-1 46 -4.5 95t-9.5 115t-8 96q-1 12 -1.5 55.5t-6.5 66.5q0 29 30 19q49 -20 117.5 -73t106.5 -99l10 -14q10 -14 21 -29t24.5 -32t25.5 -30t19 -16q20 -8 111.5 15t105.5 24q170 12 338 -23q16 -3 48 -11.5
t50 -10.5q4 0 14.5 9t22.5 21.5t22.5 25.5t18.5 23l8 9q13 14 54 63t74.5 82t66.5 52q16 10 29 -3q20 -27 24 -90.5t-2 -124t-6.5 -117.5t10.5 -71q19 -26 49 -63.5t40.5 -53t24.5 -48t25 -79.5q72 37 172.5 68t169.5 43q15 0 17 -12.5t-10 -18.5q-64 -10 -167.5 -42.5
t-174.5 -69.5q12 -66 16 -101q23 5 141.5 40t186.5 40q15 0 16.5 -12.5t-10.5 -18.5q-66 -5 -181.5 -39t-148.5 -41q6 -46 6 -86h10q373 0 400 -51q8 -14 -4.5 -21t-22.5 5l-2 6h-6q-196 28 -373 31v-21q0 -95 -28.5 -172t-74 -130t-114 -92.5t-138 -62t-158 -36.5t-162 -19
t-160.5 -6q-54 -2 -121.5 0t-130 7.5t-126.5 24t-112 48.5q-92 58 -166 166t-110 233q-20 -6 -55 -20t-65 -23t-58 -12q-10 0 -15.5 7t-3 14.5t11.5 9.5q28 3 56 11t68.5 24t52.5 20l-13 55q-59 -1 -178 -5t-180 -5q-15 0 -18 14t12 17q61 1 181 5t179 5q-7 61 -4 107
q-35 9 -101 20.5t-87 15.5q-74 17 -109 13q-15 0 -18 13.5t12 16.5q46 5 137 -9.5t170 -39.5q2 22 15 78zM571 489q15 0 17 -12t-10 -18l-41 -6q41 -127 113.5 -236.5t150.5 -144.5q171 -78 467 -74q219 3 387 37q406 76 413 465h-10q-15 4 -12 17t18 13h4l-6 80
q-24 -4 -34 -4t-15.5 7t-3 14.5t11.5 9.5q13 0 37 4q-3 19 -16 88q-19 -11 -35 -27q-12 -10 -21.5 -0.5t-0.5 21.5q26 26 51 39l-17 55q-18 58 -41 92q-8 12 -44 46.5t-40 54.5q-16 65 -10 189.5t-4 189.5q-26 -25 -53 -53.5t-60 -65.5t-51 -56l-8 -6q-9 -9 -28.5 -32.5
t-36 -40t-33.5 -27.5q-16 -4 -35 0t-48 12.5t-38 9.5q-148 30 -272 25q-12 -1 -81.5 -13t-133.5 -21t-76 -5t-31.5 24t-35 41t-31.5 42.5t-17 23.5q-15 18 -31 34t-37.5 32t-34.5 25t-42 28t-39 25q2 -62 13.5 -193t12.5 -199v-2q8 -15 -6 -26q-26 -10 -46 -30.5t-34.5 -53
t-21.5 -54.5t-17 -61l-4 -16q0 -1 -1 -3t-1 -3q-1 -8 -4 -21.5t-5 -25t-3 -21.5q54 -17 88 -43q11 -11 3 -22.5t-21 -2.5q-27 22 -74 39q-2 -14 -2 -43l6 -51h29q15 0 16.5 -12.5t-10.5 -18.5h-29l12 -47q13 4 43 8zM1839 756q-15 -13 -28 -2t-1 26q7 8 9 8q12 5 30.5 7.5
t31 2.5t34.5 -0.5t27 -0.5q12 -1 16.5 -9.5t0 -17t-16.5 -10.5h-54q3 -11 13.5 -35t15.5 -41q15 -51 -1.5 -135t-49.5 -127q-7 -11 -29.5 -27.5t-26.5 -19.5q-82 -73 -106 -88q-99 -61 -239.5 -83t-281.5 2t-235 91l-119 86q-18 13 -32 30.5t-32 47t-24 37.5q-20 27 -30 71
t-11.5 73.5t-1.5 80.5q-17 -6 -51 -10q-17 5 -17 18t17 19q25 3 53 12q3 8 10 11t13 1q4 4 8 4q73 24 92 27q12 -2 16.5 -10.5t0 -16.5t-16.5 -10q-7 -1 -20 -6t-33 -13.5t-35 -13.5q1 -74 9 -124t32 -102t71.5 -96t123.5 -87q196 -109 438 -90q117 9 205 51t180 125
q3 3 22.5 15t24.5 22q57 140 41 223q-3 16 -15 44.5t-16 41.5q-2 0 -6.5 -1t-5.5 -1zM1470 856l-2 21q1 22 18 32.5t35.5 2.5t22.5 -31q0 -11 3 -34t3 -34q-3 -25 -21 -33.5t-35 3t-17 34.5q-1 1 -7 39zM1290 547q0 11 7 15t14.5 0.5t9.5 -13.5q2 -42 13 -130.5t12 -135.5
q-1 -10 -7 -13.5t-13 -0.5t-11 12q-1 47 -12 135.5t-13 130.5zM1018 838q0 25 17.5 37.5t36 4t22.5 -33.5v-51q-4 -25 -22.5 -33.5t-36 3t-17.5 34.5v39zM1343 651q-4 -23 -24 -31t-37.5 3t-13.5 34t21 29.5t34 -4.5t20 -31z" />
    <glyph glyph-name=".null" horiz-adv-x="0" 
 />
    <glyph glyph-name="nonmarkingreturn" horiz-adv-x="682" 
 />
    <glyph glyph-name="NULL" horiz-adv-x="0" 
 />
    <glyph glyph-name="NULL" horiz-adv-x="0" 
 />
    <glyph glyph-name="CR" unicode="&#xd;" horiz-adv-x="819" 
 />
    <glyph glyph-name="space" unicode=" " horiz-adv-x="614" 
 />
    <glyph glyph-name="exclam" unicode="!" horiz-adv-x="491" 
d="M123 412v65q4 13 6.5 79.5t2.5 160.5t-0.5 182t-1.5 170.5t-1 99.5l-6 66q-4 40 -4 68q0 44 43.5 75t85.5 31q135 0 135 -201q0 -26 2 -110t2 -155t-1.5 -169t-10 -174t-22.5 -145.5t-40 -107.5t-61 -38q-60 0 -93.5 34.5t-35.5 68.5zM102 123q0 43 52.5 78t81.5 35
q53 0 88.5 -38t35.5 -83q0 -33 -17 -57.5t-44 -36.5t-53 -17.5t-51 -5.5q-48 8 -70.5 45.5t-22.5 79.5z" />
    <glyph glyph-name="quotedbl" unicode="&#x22;" horiz-adv-x="845" 
d="M233 1436h9q35 -10 66 -63t44.5 -122t11.5 -136.5t-34.5 -114t-91.5 -46.5q-57 0 -84 22.5t-27 55.5v10q6 3 0 68t-15 142t-8 96q0 39 26 63.5t103 24.5zM612 1440h9q35 -10 66 -63t44 -122t11 -136.5t-34.5 -114t-91.5 -46.5q-57 0 -83.5 22.5t-26.5 55.5v11q6 3 0 67.5
t-15 141.5t-8 96q0 39 26 63.5t103 24.5z" />
    <glyph glyph-name="dollar" unicode="$" horiz-adv-x="1200" 
d="M430 1509q1 60 35 101t80 41q63 0 88 -58t29 -159h10q39 0 77.5 -6.5t81.5 -23.5t69 -53t26 -87q0 -17 -2.5 -28t-11.5 -25.5t-31 -23.5t-56 -13q-37 22 -112.5 18.5t-152 -19.5t-134 -52t-57.5 -77q0 -27 55 -55q24 -16 121 -26q183 -23 274 -57q278 -104 279 -414
q0 -115 -15.5 -184.5t-52.5 -119.5q-107 -142 -332 -178q0 -90 -25 -136t-87 -46h-8q-46 4 -70 54t-29 122q-134 18 -230.5 85.5t-96.5 158.5q0 42 44 72t87 30q47 0 114 -41q30 -17 49 -26t54 -18t71 -9q29 0 65 5.5t84 20.5t79.5 50.5t31.5 85.5q0 60 -16 109.5
t-49.5 90.5t-92.5 64t-138 23q-41 3 -66.5 5.5t-66 8.5t-67 13t-61 18.5t-56.5 26.5t-46.5 36.5t-38 47.5t-22.5 61.5t-9 76.5q0 57 27.5 114t70.5 101.5t82.5 75.5t77.5 53l70 35v131z" />
    <glyph glyph-name="quotesingle" unicode="'" horiz-adv-x="466" 
d="M233 1440h9q35 -10 66 -63t44.5 -122t11.5 -136.5t-34.5 -114t-91.5 -46.5q-57 0 -84 22.5t-27 55.5q6 7 0 74.5t-15 145t-8 96.5q0 39 26 63.5t103 24.5z" />
    <glyph glyph-name="parenleft" unicode="(" horiz-adv-x="712" 
d="M479 8q-183 115 -280 306.5t-97 420.5q0 194 57.5 333.5t184.5 268.5l14 15q47 43 105 43q48 0 77 -35.5t31 -81.5q0 -20 -16.5 -55t-32.5 -45q-184 -135 -184 -428q0 -80 27.5 -190t67 -205t88 -161t85.5 -63q11 -83 -29.5 -115.5t-97.5 -7.5z" />
    <glyph glyph-name="parenright" unicode=")" horiz-adv-x="712" 
d="M233 8q-57 -25 -97.5 7.5t-29.5 115.5q50 -4 114.5 105t109.5 258t45 256q0 292 -185 428q-16 10 -32.5 45t-16.5 55q2 46 31.5 81.5t77.5 35.5q57 0 104 -43l15 -15q127 -128 184 -267.5t57 -334.5q0 -229 -97 -420.5t-280 -306.5z" />
    <glyph glyph-name="comma" unicode="," horiz-adv-x="466" 
d="M233 215h9q35 -10 66 -63t44.5 -122t11.5 -136.5t-34.5 -113.5t-91.5 -46q-57 0 -84 22.5t-27 55.5q6 7 0 74t-15 144.5t-8 96.5q0 39 26 63.5t103 24.5z" />
    <glyph glyph-name="hyphen" unicode="-" horiz-adv-x="1081" 
d="M102 483q0 89 55.5 108.5t260.5 22.5q40 0 188 4q195 5 244 5q58 0 93.5 -35.5t35.5 -114.5q0 -54 -29.5 -81t-66.5 -27q-57 0 -322 -5q-106 -2 -321 -2q-22 0 -36 1t-35.5 7.5t-34.5 19t-22.5 37.5t-9.5 60z" />
    <glyph glyph-name="period" unicode="." horiz-adv-x="487" 
d="M102 158q0 34 43 80.5t111 46.5q49 0 89 -56t40 -96q0 -135 -147 -135q-70 0 -103 44.5t-33 115.5z" />
    <glyph glyph-name="slash" unicode="/" horiz-adv-x="964" 
d="M608 1321l2 6q43 72 121 72q34 0 57 -8q74 -42 74 -125q0 -15 -2.5 -29.5t-11 -40.5t-19 -52.5t-33 -78t-46.5 -104t-65 -143t-83.5 -182.5t-108 -235.5t-131.5 -289.5q-32 -55 -62.5 -83t-72.5 -28q-51 0 -88 32.5t-37 90.5q0 70 60 188l4 6q22 52 171 373t265 613
q6 6 6 18z" />
    <glyph glyph-name="zero" unicode="0" horiz-adv-x="997" 
d="M500 -4h-2q-93 4 -170 51t-125 120t-74.5 159t-26.5 172q0 119 37.5 220.5t101.5 169.5t149 106t179 38q75 0 133 -28.5t93.5 -74.5t58.5 -109.5t32 -127.5t9 -135q0 -80 -27 -174.5t-75 -182t-126 -146t-167 -58.5zM358 479q0 -87 39 -154t109 -67q39 0 76.5 51
t57 125.5t25 150.5t-18.5 133t-75 66q-64 -4 -114.5 -55.5t-74.5 -118.5t-24 -131z" />
    <glyph glyph-name="one" unicode="1" horiz-adv-x="690" 
d="M322 115l6 426q-47 -54 -117 -54q-58 0 -83.5 36.5t-25.5 78.5q0 31 11 59.5t22.5 44t34.5 42.5l125 190q16 27 25.5 40.5t27.5 29t43.5 22t61.5 6.5q135 0 135 -157v-56q0 -118 -4 -352t-4 -350v-53q-37 -74 -148 -74q-54 0 -82 38.5t-28 82.5z" />
    <glyph glyph-name="two" unicode="2" horiz-adv-x="837" 
d="M102 121q0 35 32.5 96t63.5 104.5t83 112.5v-2q147 223 151 359v2q-27 -9 -49 -35q-3 -3 -15 -14t-17 -14.5t-16.5 -8t-23.5 -4.5q-72 0 -105.5 30.5t-33.5 106.5q0 52 31 93.5t78.5 66t99 37t98.5 12.5q44 0 80 -14.5t58.5 -37t37.5 -53t21 -61t6 -61.5
q0 -74 -15.5 -143.5t-55.5 -153t-67.5 -132.5t-92.5 -157h51q39 0 74 -4.5t74 -17t62 -40t23 -67.5q0 -58 -42 -85.5t-97 -27.5q-2 0 -52.5 2.5t-98 3.5t-99 -3.5t-70.5 -16.5h-8q-20 -4 -28 -4q-57 0 -97.5 38.5t-40.5 92.5z" />
    <glyph glyph-name="three" unicode="3" horiz-adv-x="897" 
d="M102 207q0 115 129 115h17q23 0 76 -31q1 -1 3 -2t3 -2q83 -45 123 -45q31 0 61.5 24.5t30.5 52.5q0 34 -48 67.5t-98 47.5l7 -2q-24 4 -33 4q-32 1 -50 4t-41 14.5t-33.5 38.5t-10.5 70q0 24 8.5 43t28 36t34.5 27t45 27q82 44 97 86l-23 -8q-36 -16 -63 -16
q-63 0 -96 36.5t-33 102.5q0 44 80.5 89.5t187.5 45.5q45 0 82 -17t59.5 -43.5t38 -60.5t21.5 -66t6 -63q-24 -103 -76 -172q160 -106 160 -293q0 -62 -27.5 -116.5t-70.5 -91.5t-95.5 -63.5t-102 -39t-89.5 -12.5q-52 0 -124.5 33t-128 84.5t-55.5 95.5z" />
    <glyph glyph-name="six" unicode="6" horiz-adv-x="841" 
d="M125 260q-23 73 -23 191q0 98 31 229t78.5 247t111 196.5t121.5 80.5q45 0 83 -42t38 -89q0 -41 -45 -100q-43 -60 -79.5 -141t-51.5 -150h45q133 0 208 -78.5t97 -208.5q0 -101 -38 -191.5t-116 -151t-179 -60.5q-98 0 -177.5 83.5t-103.5 184.5zM475 365q0 56 -67 59
q-64 -11 -64 -57q0 -41 30 -79t62 -38q39 0 39 115z" />
    <glyph glyph-name="seven" unicode="7" horiz-adv-x="837" 
d="M395 -76v4q92 780 97 856h-15q-144 -8 -244 -8q-55 5 -93 43.5t-38 93.5v33q21 31 63 56.5t77 25.5h293q106 0 153 -59t47 -154q0 -87 -13 -220t-34 -313.5t-31 -285.5q-5 -52 -12.5 -83t-24.5 -54.5t-44.5 -33t-71.5 -9.5q-29 0 -69 40t-40 68z" />
    <glyph glyph-name="eight" unicode="8" horiz-adv-x="845" 
d="M102 332q0 83 35 164t96 139q-104 136 -104 256q0 128 79 223.5t204 95.5q149 0 240 -89.5t91 -237.5q0 -70 -31 -135.5t-102 -149.5q42 -49 68 -113.5t33 -130t-7 -130t-46.5 -114t-92.5 -80t-139 -30.5q-144 0 -234 92.5t-90 239.5zM346 346q0 -52 26.5 -81t73.5 -29
q11 0 17 19t6 44q0 55 -13.5 110.5t-39.5 55.5q-30 0 -50 -40.5t-20 -78.5zM373 891q0 -67 61 -125q66 66 66 113q0 90 -105 90q-10 0 -16 -26t-6 -52z" />
    <glyph glyph-name="nine" unicode="9" horiz-adv-x="862" 
d="M737 778v2q23 -80 23 -198q0 -101 -32.5 -236t-82 -254.5t-115.5 -203t-127 -83.5q-46 0 -85 43.5t-39 90.5q0 33 20.5 72.5t49 77t56.5 77.5t46.5 87t15.5 91h-51q-131 1 -212.5 74t-93.5 176.5t15.5 207.5t114.5 176.5t204 72.5q102 0 184.5 -85.5t108.5 -187.5z
M451 606h-9q70 16 70 64q0 41 -32.5 78.5t-65.5 37.5q-43 0 -43 -116q0 -64 80 -64z" />
    <glyph glyph-name="colon" unicode=":" horiz-adv-x="509" 
d="M125 158q0 30 34 78.5t70 48.5h50q49 0 89 -56t40 -96q0 -135 -148 -135q-70 0 -102.5 44.5t-32.5 115.5zM102 715q0 43 42 91t87 48q42 0 69 -5t51 -21t35 -49.5t11 -86.5q0 -51 -37 -97t-90 -46q-64 0 -116 52t-52 114z" />
    <glyph glyph-name="semicolon" unicode=";" horiz-adv-x="516" 
d="M102 727q0 30 33.5 78.5t69.5 48.5h51q49 0 88 -55.5t39 -93.5q0 -138 -147 -138q-69 0 -101.5 44.5t-32.5 115.5zM283 215h8q35 -10 66 -63t44.5 -122t11.5 -136.5t-34.5 -113.5t-91.5 -46q-57 0 -84 22.5t-27 55.5q6 22 0.5 78t-14.5 137t-8 100q0 39 26 63.5t103 24.5
z" />
    <glyph glyph-name="question" unicode="?" horiz-adv-x="1105" 
d="M422 506l10 133q8 50 39 92.5t64.5 67t85 60t79.5 59.5q60 60 60 137q0 41 -59 65.5t-113 24.5q-123 0 -183 -53.5t-73 -178.5q-9 -87 -66.5 -104.5t-110.5 29t-53 116.5q0 110 41 194t112.5 134t160.5 75t192 25q108 0 197.5 -44t144 -129t54.5 -195q0 -131 -123 -254
l-207 -162q-8 -16 -8.5 -42t3 -59.5t3.5 -45.5q0 -49 -41 -79t-82 -30q-35 0 -60 11t-38 26t-19.5 40.5t-8 43t-1.5 43.5zM440 129q0 57 38 84t85 27q66 0 94.5 -31.5t28.5 -95.5q0 -57 -39 -84t-86 -27q-53 0 -87 37t-34 90z" />
    <glyph glyph-name="at" unicode="@" horiz-adv-x="1361" 
d="M584 956q8 2 26 2q105 0 171.5 -57.5t66.5 -157.5q1 -285 76 -316q46 -19 101 64q62 95 79 226q5 40 4 76q-3 123 -66 219t-158 144.5t-202 49.5q-67 1 -130 -18.5t-120.5 -63t-99.5 -107t-66.5 -157t-23.5 -207.5q2 -120 45.5 -236t121.5 -198.5t187 -100t242 59.5
q32 19 61 6.5t32 -40.5t-22 -56q-92 -64 -182 -88t-164.5 -10t-143 54.5t-120.5 103.5t-93.5 139t-65.5 158t-33.5 164.5t-0.5 154.5q33 260 191.5 416.5t368.5 162.5q117 3 218 -34.5t169.5 -102t117.5 -148t69.5 -172.5t17.5 -176.5t-31 -158.5q-43 -106 -92.5 -168
t-108 -80.5t-128 20.5t-146.5 136q-63 -39 -158 -39q-174 0 -174 182q0 36 14.5 64t36 43.5t50.5 25t53.5 12.5t50.5 3q41 0 84 -11q-11 40 -43.5 66t-79.5 26q-12 0 -38 -9t-42 -9q-43 0 -43 51v6q0 19 2.5 29.5t13 23.5t36.5 21t69 12zM698 614h-88q-55 0 -55 -20
q0 -17 21 -27t45 -10q77 0 77 57z" />
    <glyph glyph-name="A" unicode="A" horiz-adv-x="1107" 
d="M760 39l-4 24q-3 23 -14.5 141.5t-10.5 139.5q-28 4 -61 4q-42 0 -140 -4q-66 -4 -108 -4h-12l-17 -72q-6 -20 -17 -57t-17 -55.5t-16.5 -46.5t-20 -42.5t-23.5 -30t-31.5 -22t-38.5 -6.5q-127 0 -127 131q0 36 23 97l281 948q6 34 11.5 56t15 55t22.5 54.5t30.5 42.5
t42.5 31.5t56 10.5q113 0 188 -314l234 -1036q-10 -55 -43.5 -84t-77.5 -29q-66 0 -125 68zM578 846l-7 20q-10 -36 -51 -157q-7 -23 -19 -57t-22 -68q103 0 158 6q-43 197 -59 256z" />
    <glyph glyph-name="B" unicode="B" horiz-adv-x="1095" 
d="M141 154q-8 297 -18 446q-21 315 -21 457q0 153 13 270q6 53 100 90t217 37q77 0 146 -15t129.5 -47t96.5 -90t36 -135q0 -189 -121 -338q121 -31 197.5 -112.5t76.5 -204.5q1 -195 -205 -317q-157 -93 -369 -112q-166 -15 -242 25q-35 19 -36 46zM391 350l-4 -28
q24 -3 82 -3h8q29 0 48 1t53 6t58 15t49.5 30t41.5 49q27 48 27 76q0 37 -21.5 63.5t-51 40t-76.5 21t-80.5 9t-80.5 1.5h-14q-4 0 -9 -1t-26 -1q0 -36 -1 -105.5t-1 -105.5q0 -37 -2 -68zM373 1083q0 -155 8 -231q88 12 156.5 106t68.5 187q0 57 -129 57q-34 0 -84 -4
q-6 -2 -20 -2v-113z" />
    <glyph glyph-name="C" unicode="C" horiz-adv-x="1189" 
d="M102 569q0 91 13.5 179t41.5 179.5t78 172t118 149.5t166.5 119.5t217.5 73.5q40 8 74 8q145 0 145 -150q0 -51 -33.5 -77.5t-80.5 -26.5q-95 0 -175.5 -34t-135.5 -92.5t-94 -136.5t-57 -165t-18 -180q0 -168 93 -252t264 -84q41 0 132 15.5t134 15.5q56 0 79 -27
t23 -82q0 -166 -303 -166q-131 0 -231.5 14.5t-185.5 57.5q-128 64 -196.5 201t-68.5 288z" />
    <glyph glyph-name="D" unicode="D" horiz-adv-x="1161" 
d="M281 -2q-30 0 -49 6t-39 28.5t-31.5 60.5t-23 107.5t-17.5 163.5t-11 235.5t-6.5 316t-1.5 411.5q0 31 9 52t20 31.5t34.5 16t40 6.5t48.5 1q54 0 149 -31l27 -6q96 -27 186.5 -73t171 -113.5t141 -148.5t95.5 -183.5t35 -212.5q0 -111 -45.5 -215.5t-123.5 -185
t-177 -141.5t-211 -93.5t-221 -32.5zM815 670q0 116 -66 227.5t-172 187.5t-223 97l27 -944q86 23 160 59t137.5 88t100 125.5t36.5 159.5z" />
    <glyph glyph-name="E" unicode="E" horiz-adv-x="1132" 
d="M127 250l-23 1020q-8 88 22 127t118 39q18 0 299 -11q196 -8 295 -8q30 0 51 -1.5t46.5 -8.5t42 -19.5t27.5 -35.5t11 -56q0 -74 -33.5 -100.5t-110.5 -26.5q-35 0 -110 7q-105 10 -232 10q-41 0 -155 -4v-387q0 -11 14 -11q16 0 121 5t200.5 10t96.5 4q59 0 92.5 -5
t50 -21t20 -34t3.5 -55v-18q0 -45 -49 -76t-88 -31q-88 0 -213 -8q-178 -12 -248 -14l12 -305q38 0 131 14h-2q191 26 281 26q233 0 233 -106q0 -34 -10.5 -58.5t-23 -37.5t-38 -21t-41.5 -10t-47 -4q-4 0 -9.5 -1t-8.5 -1q-429 -33 -559 -33q-43 0 -74.5 16t-48.5 38.5
t-27 58.5t-12.5 65t-3.5 68z" />
    <glyph glyph-name="F" unicode="F" horiz-adv-x="919" 
d="M113 90q2 71 0.5 156t-3 181t-4 195.5t-3 197t0 186.5t5.5 165t13 131.5t23 86t35 28.5q149 8 238.5 10.5t168.5 -0.5t118 -12.5t67.5 -31t36.5 -50t8 -73.5q0 -89 -207 -89q-32 0 -145 5q-74 4 -90 4q2 -64 16 -326q36 4 60 4q118 8 194 8q33 0 57.5 -5t47 -17.5t34 -39
t11.5 -65.5q0 -27 -1.5 -45t-8.5 -34t-15 -25.5t-27 -17.5t-38 -11.5t-55.5 -6t-71.5 -3t-93 -0.5h-104q0 -98 -6 -203q-8 -156 -8 -243q0 -76 -30.5 -114t-117.5 -38q-64 0 -106 92z" />
    <glyph glyph-name="G" unicode="G" horiz-adv-x="1492" 
d="M1380 676q0 -67 5 -185q9 -124 0 -217t-53 -154t-156.5 -91.5t-311.5 -30.5q-97 0 -202.5 27t-205 80.5t-179 125t-127.5 169.5t-48 206q0 213 124.5 410t326.5 325q64 42 147 68.5t160 26.5q154 0 154 -121q-3 -22 -10 -35.5t-26 -24.5t-31 -15.5t-48 -16.5
q-95 -20 -191 -75.5t-173 -131t-125 -172.5t-48 -193q0 -93 48.5 -172.5t125 -130t167.5 -78.5t180 -28q147 0 268 73q14 93 14 242l-121 -6q-110 -8 -170 -8q-245 0 -245 137q0 45 26.5 73.5t59.5 38t71 9.5l433 6q33 0 52.5 -1.5t43 -8.5t36 -20.5t21 -39t8.5 -61.5z" />
    <glyph glyph-name="H" unicode="H" horiz-adv-x="1130" 
d="M748 143q0 49 2.5 174t1.5 193l-379 -10v-312q0 -48 -7.5 -77.5t-26 -45t-35.5 -21.5t-50 -11l-37 -4q-29 5 -50 18.5t-32 28.5t-18.5 40t-10 41.5t-4.5 43.5q0 19 1 52.5t1 49.5q9 468 5 993q0 62 30 109t99 47q37 0 53.5 -0.5t37 -5.5t28 -14t15.5 -27t9.5 -43t1.5 -64
q0 -14 -3 -135.5t-3.5 -211.5t2.5 -179v-12q53 -11 134 -11t241 13l6 559q0 54 37.5 81.5t85.5 27.5q46 0 75 -13t41 -39.5t15.5 -50t3.5 -61.5q0 -87 5.5 -352.5t3.5 -471.5t-17 -356q-11 -50 -49 -77t-84 -27q-37 0 -63.5 15t-40 40.5t-19.5 51.5t-6 54z" />
    <glyph glyph-name="I" unicode="I" horiz-adv-x="995" 
d="M102 168q0 72 203 72q16 0 45 -1t41 -1h17q0 42 4 182q12 365 10 762h-51q-54 0 -82.5 1t-55.5 7t-36.5 13t-18 26t-9.5 39t-1 59q0 47 31 77t77 30q65 -5 126 -4.5t175.5 3.5t151.5 3q98 0 131 -29t33 -123q0 -98 -141 -98h-45q-27 0 -39 -2q0 -17 2 -225t1 -421.5
t-9 -283.5q18 2 61 2q57 0 84 -4q26 -5 45.5 -38.5t27 -65t7.5 -48.5q0 -27 -21 -47t-60.5 -31t-81.5 -18t-99 -8.5t-96 -1.5t-90.5 1t-65.5 1q-271 0 -271 94v78z" />
    <glyph glyph-name="J" unicode="J" horiz-adv-x="919" 
d="M102 141v2q0 109 115 109q30 0 66 -4h4q36 -4 61 -4h8q41 -5 73 5.5t52 30.5t33.5 54t19.5 65.5t8.5 76.5t2 75t-2 73t-1.5 60v487q-35 3 -99 3q-48 1 -76 2t-69.5 7t-64 16t-39.5 29.5t-17 47.5v4q-4 20 -4 39q0 20 35.5 39t92.5 31.5t126 20t137.5 2.5t125.5 -19.5
t92.5 -46.5t35.5 -78q0 -21 -4 -154.5t-4 -292.5q0 -128 -1 -204.5t-5.5 -165.5t-11 -136t-23 -103.5t-34.5 -81.5t-51 -55.5t-68.5 -40.5t-91 -21t-114.5 -13t-143 -2q-97 0 -128.5 26t-35.5 117z" />
    <glyph glyph-name="K" unicode="K" horiz-adv-x="1079" 
d="M102 92v41q0 3 1 27t2 90.5t1.5 182.5t0.5 350.5t-1 547.5q0 51 23 78t80 27h10h14h9q62 0 84 -23q32 -34 39 -174q4 -82 4 -291q135 122 260 260l26 31q44 60 99 109t90 49q72 0 125 -66q6 -16 7.5 -29.5t-9 -35.5t-22.5 -40.5t-33.5 -44.5t-42 -48.5t-47.5 -50.5
t-50 -51.5t-50 -52.5t-48 -52q-20 -23 -38.5 -40t-27 -23t-13.5 -11t-5 -10q28 -47 145 -211q74 -103 118 -169t84 -142.5t40 -114.5q0 -56 -27.5 -85.5t-89.5 -29.5q-28 0 -61.5 23.5t-62 55.5t-66 87t-62 96t-61.5 105q-5 9 -21 36.5t-22.5 38.5t-20 33.5t-21 34.5t-18 28
t-18.5 26.5t-16 19.5q-48 -48 -48 -51q0 -146 -14 -439q-2 -35 -3.5 -53.5t-9 -47t-21 -42.5t-39 -25.5t-62.5 -11.5h-29q-18 3 -50 36.5t-32 51.5z" />
    <glyph glyph-name="L" unicode="L" horiz-adv-x="925" 
d="M115 164q0 335 -6 624q-1 48 -4 236t-3 289q0 36 9.5 60t21.5 36.5t37 18.5t42 7t52 1h17q98 0 98 -418q0 -119 -8 -376.5t-9 -352.5v-39q72 0 142 6q102 8 164 8q155 0 155 -123q0 -45 -22.5 -73.5t-57 -38.5t-77.5 -14.5t-83.5 -2t-74.5 -0.5q-205 -10 -254 -10
q-38 0 -64.5 9.5t-41 23.5t-22 37.5t-9.5 42.5t-2 49z" />
    <glyph glyph-name="M" unicode="M" horiz-adv-x="1720" 
d="M139 98l-6 29q-31 797 -31 1161q0 35 11 58.5t32.5 35t44 15.5t52.5 4q29 0 71 -42t100.5 -131.5t100 -158.5t111.5 -192q17 -30 56 -97.5t58.5 -101.5t44.5 -75t41 -62q10 17 22.5 41.5t39 77t57.5 114t92.5 184.5t128.5 256q1 2 4.5 7.5t4.5 7.5q21 41 31 59.5
t33.5 51.5t44 48.5t53.5 28.5t71 13q57 0 108.5 -265t77 -563.5t25.5 -482.5q0 -152 -113 -152h-10h-8q-47 0 -62 15q-27 24 -43 149q-8 66 -28 268l-54 539q-13 -26 -51.5 -131.5t-84 -222.5t-99.5 -235t-113 -193.5t-110 -73.5q-30 2 -64 33q-49 56 -100.5 134t-80 128
t-83.5 151q-3 5 -8 14.5t-8 14.5q-26 46 -47.5 91t-40 78t-54.5 83l6 -133q15 -338 15 -539v-10q-1 -55 -31 -83t-82 -28h-18q-35 1 -48.5 4.5t-28.5 20.5t-30 57z" />
    <glyph glyph-name="N" unicode="N" horiz-adv-x="1140" 
d="M104 213q0 72 1 221t1 225q3 231 3 459v60q0 9 -1.5 29t-1.5 30q0 57 32.5 102t92.5 45q30 0 55 -9t43 -27.5t27.5 -32t22.5 -35.5v2q197 -318 393 -739l-16 745q0 55 28 96t86 41h9q35 -1 60.5 -17t39.5 -39.5t22.5 -60t11 -68t3.5 -75.5l18 -860q3 -50 3 -91t-1.5 -71
t-8 -53.5t-11.5 -38.5t-16 -25t-18 -15t-22 -7.5t-22.5 -3t-24.5 -0.5h-10q-4 0 -14 4.5t-33 21t-51 42.5t-69.5 76.5t-87 115.5t-105 166.5t-121.5 222.5l-53 105q30 -322 4 -664q-19 -42 -60 -63t-86 -23q-62 8 -93.5 54.5t-31.5 109.5q0 1 1 3t1 3v39z" />
    <glyph glyph-name="O" unicode="O" horiz-adv-x="1488" 
d="M102 702q0 99 28.5 202t84 197t130 167.5t175.5 117.5t211 44q182 0 331.5 -85t236.5 -236.5t87 -338.5q0 -174 -48 -320t-134 -246.5t-207 -156t-264 -55.5q-121 0 -236.5 58t-202 153.5t-139.5 227t-53 271.5zM758 244q85 0 156 50.5t114.5 130.5t67.5 172.5t24 182.5
q0 115 -56.5 209.5t-148.5 146.5t-198 52q-95 0 -179.5 -76.5t-131 -185t-46.5 -211.5q0 -64 14.5 -129t45.5 -127t75.5 -109.5t110 -76.5t142.5 -29h10z" />
    <glyph glyph-name="P" unicode="P" horiz-adv-x="966" 
d="M139 125q0 229 -18 594q-19 370 -19 579q0 132 152 132q35 0 168 -29q224 -55 333 -189.5t109 -322.5q0 -200 -109.5 -310t-359.5 -155v-43q0 -44 6.5 -138t6.5 -139q0 -3 -4 -13t-13.5 -25.5t-23.5 -29.5t-37 -24t-51 -10q-59 0 -99.5 33t-40.5 90zM356 1149l31 -481
q229 14 229 225q0 92 -83 170t-177 86z" />
    <glyph glyph-name="Q" unicode="Q" horiz-adv-x="1540" 
d="M1190 -29l-2 2q-53 73 -131 133q-48 -48 -158 -77t-197 -29q-162 0 -301 94t-219 248.5t-80 327.5q0 154 48 293.5t132.5 244t208.5 166.5t267 62q127 0 241 -49.5t198.5 -137t134.5 -214.5t50 -275q0 -100 -30 -231t-107 -261q18 -14 23 -20q37 -29 58.5 -48.5t51.5 -52
t45 -67.5t15 -72q0 -55 -35.5 -84.5t-97.5 -29.5q-24 0 -46 12t-35 25.5t-34 39.5zM350 680q0 -96 26.5 -174.5t67.5 -127.5t93.5 -82t101.5 -46.5t94 -13.5q133 0 133 14q0 16 -78 98q-43 44 -66.5 71.5t-46 68t-22.5 75.5q0 31 10.5 53.5t24.5 33.5t37.5 17.5t40.5 7.5
t43 1q49 0 182 -174v2q10 -13 28 -35.5t25 -32t5 -12.5q84 125 84 338q0 62 -27 138t-72.5 144.5t-114.5 115t-143 46.5q-83 0 -160.5 -36t-136 -99t-94 -156t-35.5 -200v-35z" />
    <glyph glyph-name="R" unicode="R" horiz-adv-x="1247" 
d="M1034 -43q-56 0 -109.5 26.5t-97.5 70t-87.5 96t-87 106.5t-88 100t-98.5 79t-110 40q0 -52 -5.5 -167t-4.5 -195q-4 -46 -39 -68t-80 -22q-44 0 -84.5 21.5t-40.5 70.5q0 37 1 297.5t1 437.5q0 110 0.5 176.5t5 132.5t9 99.5t18 66t26 44.5t38.5 22.5t50.5 12t67.5 1.5
q55 0 106 -2.5t129.5 -13t143.5 -28t135 -51.5t118.5 -79.5t80 -115.5t31.5 -157q0 -132 -87 -240.5t-243 -182.5q63 -69 194.5 -197t194.5 -195q23 -37 23 -63q0 -60 -22 -91.5t-89 -31.5zM358 1161l-12 -465q67 0 141 12.5t150 39.5t125 78.5t49 119.5q0 41 -18.5 73.5
t-55 54.5t-75.5 37t-94.5 24.5t-96 14.5t-96.5 9h-5.5t-2 0.5t-0.5 1t-2.5 0.5h-6.5z" />
    <glyph glyph-name="S" unicode="S" horiz-adv-x="1200" 
d="M551 0q-97 0 -188.5 31.5t-151 89.5t-59.5 127q0 42 44 72t87 30q47 0 114 -41q30 -17 49 -26t54 -18t71 -9q29 0 65 5.5t84 20.5t79.5 50.5t31.5 85.5q0 60 -16 109.5t-49.5 90.5t-92.5 64t-138 23q-41 3 -66.5 5.5t-66 8.5t-67 13t-61 18.5t-56.5 26.5t-46.5 36.5
t-38 47.5t-22.5 61.5t-9 76.5q0 57 27.5 114t70.5 101.5t82.5 75.5t77.5 53q167 91 312 91q39 0 77.5 -6.5t81.5 -23.5t69 -53t26 -87q0 -17 -2.5 -28t-11.5 -25.5t-31 -23.5t-56 -13q-37 22 -112.5 18.5t-152 -19.5t-134 -52t-57.5 -77q0 -27 55 -55q24 -16 121 -26
q183 -23 274 -57q278 -104 279 -414q0 -115 -15.5 -184.5t-52.5 -119.5q-76 -101 -205 -144.5t-274 -43.5z" />
    <glyph glyph-name="T" unicode="T" horiz-adv-x="1318" 
d="M584 168q0 14 1 160t1.5 289t-0.5 306t-4 242q-4 0 -94 2t-222 2q-75 0 -119.5 41t-44.5 97q0 41 22 68.5t63.5 40.5t85 17.5t102.5 4.5q15 0 43 -1t43 -1h647q57 0 83 -36t26 -87q0 -48 -25 -88.5t-59 -40.5l-252 -6q-14 -2 -39 -2l-2 -1037q-5 -79 -32 -112t-106 -33
q-118 0 -118 174z" />
    <glyph glyph-name="U" unicode="U" horiz-adv-x="1314" 
d="M645 16q-115 0 -207.5 46t-154.5 125.5t-103.5 189.5t-59.5 233t-18 262q0 234 62 488q12 30 41 48t49.5 22t36.5 4q121 0 121 -136q0 -30 -6 -86q-17 -178 -17 -344q0 -596 260 -596q49 0 90 18t70.5 53.5t52 79.5t37 103t24.5 116.5t14.5 129.5t6.5 131t2 131
q0 10 -1 82t-1 158q0 31 10 53t23.5 33.5t37 17.5t40.5 7t45 1q26 0 66 -22.5t40 -60.5q0 -49 3 -159.5t3 -176.5q0 -85 -3 -156.5t-11 -151.5t-21 -146t-35.5 -133.5t-52.5 -119.5t-73 -98.5t-96 -77.5t-123 -49t-152 -19z" />
    <glyph glyph-name="V" unicode="V" horiz-adv-x="1173" 
d="M434 76v-2q-85 264 -147.5 521t-122.5 456q-62 188 -62 282q0 46 38 73.5t100 27.5q59 0 86 -36t43 -106l12 -45v2q6 -21 190 -690q112 362 170 565q19 66 34 109.5t36 87t45.5 65t54.5 21.5q87 0 127 -36.5t31 -100.5q-28 -176 -135 -482t-222.5 -546t-164.5 -244h-12
q-34 0 -62 19t-39 59z" />
    <glyph glyph-name="W" unicode="W" horiz-adv-x="2201" 
d="M465 72l-2 6q-52 179 -153 489t-148 469l-15 39q-45 137 -45 215q0 50 34 85.5t79 35.5q34 0 60 -10t41 -23.5t26.5 -39t16.5 -44t12 -51.5l237 -803q47 110 170 455q17 60 43.5 127t61.5 135.5t78 113t83 44.5q45 0 109 -87.5t126.5 -223t113.5 -289.5q58 -176 110 -353
q32 21 168 457q23 74 41.5 130.5t46.5 136t54 137.5t54.5 112t57 82.5t53.5 28.5q48 0 84.5 -48.5t36.5 -101.5l-1 -4q-1 -4 -1 -8q0 -36 -65.5 -233.5t-152 -424.5t-183 -414t-148.5 -196q-24 -4 -53 -5.5t-64 5t-45 25.5l-24 41q-14 14 -27 55q0 6 -205 510l-94 234
q-14 -32 -39.5 -121.5t-52 -186t-65.5 -208t-80 -198.5t-96.5 -144.5t-112.5 -57.5q-73 0 -125 107z" />
    <glyph glyph-name="X" unicode="X" horiz-adv-x="1265" 
d="M123 115q0 36 13 63.5t40 63.5q42 54 140.5 212t146.5 224q-194 299 -258.5 407.5t-102.5 196.5q6 152 103 152q43 0 75.5 -12t57 -39.5t37.5 -49t33 -61.5q1 -2 4 -7.5t4 -7.5q12 -28 85 -149.5t124 -200.5q126 191 236.5 331t148.5 144q65 7 109 -23t44 -106v-30
q-76 -121 -141 -216.5t-109 -156t-137 -182.5q7 -19 21 -45t23.5 -41.5t34.5 -53.5t32 -49q1 -2 4 -7t4 -7q44 -67 67.5 -106.5t45.5 -95t22 -97.5q0 -37 -33 -87t-79 -50q-37 0 -67.5 16.5t-58 53.5t-46.5 70.5t-48 92.5q-1 3 -4 8.5t-4 8.5q-53 105 -80 145
q-10 -17 -26.5 -43t-64 -100.5t-105.5 -165.5q-18 -29 -28.5 -43.5t-30.5 -36t-42.5 -31.5t-48.5 -10q-141 0 -141 121z" />
    <glyph glyph-name="Y" unicode="Y" horiz-adv-x="1052" 
d="M571 -23l-5 -1q-4 -1 -9 -1q-47 0 -74.5 36t-36 87.5t-8.5 128.5q0 2 1 50.5t1 98t-1 106.5t-5 98t-12 51q-9 16 -41 76.5t-59 110.5t-29 52q-56 94 -123.5 253.5t-67.5 185.5q0 43 51 79.5t99 36.5q33 0 65.5 -28.5t63.5 -85.5t52 -104.5t50 -121.5q1 -2 3 -7t3 -7
q12 -40 43 -108q40 126 75.5 216t61 138.5t51 76t42 34t37.5 6.5t37 -1t39 -7.5t38 -17.5t26 -33t11 -52q0 -14 -1.5 -24.5t-6.5 -26t-6 -19.5l-4 -18q-69 -221 -166 -416q-58 -116 -78 -184q4 -74 12.5 -187t10.5 -153q10 -143 10 -186q0 -48 -4.5 -73.5t-22.5 -38.5
t-35.5 -15.5t-62.5 -4.5h-25z" />
    <glyph glyph-name="Z" unicode="Z" horiz-adv-x="1062" 
d="M266 2q-79 47 -88 107q-4 18 -4 71q0 26 27 99q47 135 153 385q3 7 32.5 77t37 89t31.5 78.5t36 92.5t28.5 81.5t29.5 91.5q-43 4 -107 4q-46 0 -113 -5.5t-102 -5.5q-75 0 -100 30.5t-25 129.5q0 34 18 56.5t56 34t83.5 16t113.5 4.5q19 0 61.5 -1t65.5 -1h182
q84 0 135 -30.5t51 -90.5q0 -27 -14 -62l2 2q-99 -277 -268 -698q-20 -52 -60.5 -152.5t-64.5 -166.5q111 4 235 4h93h55t40.5 -3.5t29.5 -4t19 -9.5t12 -12.5t6 -20t3.5 -24.5t1.5 -33q0 -3 1.5 -16t1.5 -23q0 -94 -123 -94h-572z" />
    <glyph glyph-name="underscore" unicode="_" horiz-adv-x="1304" 
d="M102 104q0 25 6.5 42.5t25.5 30.5t46 20.5t76 12t106.5 6t145.5 1.5h190q46 0 161.5 -1t187.5 -1q69 0 112 -28t43 -91q0 -45 -35.5 -66.5t-79.5 -21.5q-276 0 -411 -2t-408 -2q-22 0 -36 0.5t-36 3.5t-36.5 9.5t-29 17t-21.5 28t-7 41.5z" />
    <glyph glyph-name="a" unicode="a" horiz-adv-x="1011" 
d="M379 893q14 2 47 2q175 0 288.5 -97t123.5 -270q-4 -115 6.5 -204t25.5 -132t27.5 -76t12 -58t-20.5 -58q-26 -44 -78 -49t-96 23.5t-51 72.5q-108 -67 -267 -67q-295 0 -295 309q0 62 24.5 109t61 73.5t85.5 43t90 21.5t83 5q75 0 144 -19q-18 68 -72.5 113t-132.5 45
q-22 0 -66 -15.5t-69 -15.5q-38 0 -57 24t-19 62v13q0 32 4.5 49.5t23 39t62 35t115.5 21.5zM573 311q-110 2 -147 2q-96 0 -96 -37q0 -29 35.5 -45t74.5 -16q133 0 133 96z" />
    <glyph glyph-name="b" unicode="b" horiz-adv-x="935" 
d="M117 131q0 118 -7.5 359t-7.5 364q0 99 2.5 156.5t9 104t21 67.5t35.5 31t55 10q25 0 39.5 -1t30 -5.5t23 -11t15.5 -22t11 -33t6 -48.5t3.5 -64.5t0.5 -85.5q0 -12 -1 -79t-1 -91q8 -2 17.5 -3t21 -1.5t17.5 -1.5q36 -3 56.5 -5.5t59.5 -9t64 -14.5t61 -23t59.5 -34
t49.5 -48t41 -63.5t25 -82t10 -103.5q0 -74 -26 -134t-68 -98t-97.5 -64t-112 -37t-114.5 -11q-38 0 -54 2q-1 -20 -9 -32t-24.5 -16t-29.5 -5t-37 0.5t-33 1.5q-112 0 -112 131zM356 557l15 -272q41 -9 75 -9q57 0 104.5 35t47.5 107q0 63 -59.5 103t-128.5 40
q-3 0 -18 3.5t-25 2.5t-11 -10z" />
    <glyph glyph-name="c" unicode="c" horiz-adv-x="860" 
d="M532 -2q-103 0 -200.5 51.5t-162 144t-65.5 199.5q-2 16 -2 37q0 100 70 192.5t174 145.5t205 53q34 0 66 -7t63.5 -22.5t50.5 -47t19 -74.5q0 -101 -99 -101q-19 0 -53 12.5t-53 12.5q-66 0 -128.5 -59t-62.5 -123q0 -47 29.5 -84t73 -57t85.5 -30t76 -10h5
q135 0 135 -81q0 -42 -21.5 -73.5t-55.5 -47.5t-67.5 -23.5t-64.5 -7.5h-17z" />
    <glyph glyph-name="d" unicode="d" horiz-adv-x="1028" 
d="M741 -147q-47 0 -69 22t-22 54.5t1 68.5q0 4 1 11t1 11q-44 -10 -114 -10q-80 0 -154 20.5t-139 62t-104.5 115t-39.5 169.5q0 91 31 167t80.5 126.5t113.5 86t128.5 51t126.5 15.5q71 0 104 -6q2 55 2 219q0 41 5 72.5t17 60.5t37 44.5t62 15.5q72 0 94.5 -36.5
t22.5 -115.5q0 -177 -18.5 -515t-18.5 -519q0 -47 -3 -79t-12 -53t-17.5 -32.5t-29 -17.5t-37 -7t-49.5 -1zM584 569h-9q-114 0 -173.5 -50t-59.5 -120q0 -60 43.5 -103.5t118.5 -43.5l170 12q4 55 4 295q-41 10 -94 10z" />
    <glyph glyph-name="e" unicode="e" horiz-adv-x="968" 
d="M578 -113q-14 -2 -50 -2q-121 0 -219.5 66.5t-152.5 177.5t-54 240q0 116 28 204.5t72 140.5t105.5 84.5t119 44t122.5 11.5q69 0 124 -18t90.5 -48.5t59 -73.5t33.5 -91t10 -103q0 -65 -26 -114.5t-63.5 -77t-89 -44.5t-94 -22.5t-85.5 -5.5q-82 0 -150 18
q18 -71 74.5 -117t138.5 -46q23 0 69.5 15t72.5 15q39 0 59.5 -24.5t20.5 -63.5v-14q0 -26 -2.5 -41t-14 -35t-33.5 -32.5t-63.5 -24.5t-101.5 -19zM375 496q114 -2 153 -2q101 0 101 38q0 31 -37 47.5t-78 16.5q-139 0 -139 -100z" />
    <glyph glyph-name="f" unicode="f" horiz-adv-x="970" 
d="M281 190v160h-9q-16 -2 -55 -2q-50 0 -82.5 36t-32.5 87q0 54 44.5 95.5t129.5 41.5h3v56q-5 63 -7 104t-1 118.5t10 130t31 118t56.5 105t92.5 67.5t133 28q49 0 112 -22.5t112.5 -64.5t49.5 -87q0 -43 -32 -84t-82 -41q-27 0 -75.5 27t-78.5 27q-80 0 -80 -265
q0 -174 4 -229q29 0 50.5 -1.5t49 -9.5t45 -21.5t30 -39t12.5 -61.5q0 -37 -33 -78t-80 -41h-61q2 -41 2 -108q0 -61 -6.5 -105.5t-16.5 -69t-25.5 -39t-28.5 -18.5t-30 -4h-20q-60 0 -95.5 56t-35.5 134z" />
    <glyph glyph-name="g" unicode="g" horiz-adv-x="952" 
d="M518 -156q70 0 78 222q-88 -54 -182 -54q-181 0 -262 139q-69 118 -42 282q27 161 128 267q104 109 245 109q359 0 359 -395q0 -33 2.5 -91.5t3.5 -104.5t0.5 -108t-6.5 -112t-17.5 -105.5t-33.5 -99t-53 -82.5t-78.5 -66.5t-106.5 -41.5q-8 -2 -31 -2q-48 0 -111 22.5
t-113 64t-50 87.5q0 42 33.5 83.5t83.5 41.5q9 0 18 -1.5t14.5 -3t13.5 -6t10.5 -6t11 -7.5t9.5 -7l4 -2q45 -23 72 -23zM340 332q0 -36 27.5 -62t64.5 -26q69 0 116.5 53.5t47.5 126.5q0 47 -27 96.5t-67 52.5q-52 0 -90.5 -39t-55 -92t-16.5 -110z" />
    <glyph glyph-name="h" unicode="h" horiz-adv-x="960" 
d="M131 117l-29 1198q0 105 21 141.5t94 36.5q33 0 57.5 -14t35.5 -28.5t30 -45.5l8 -16v-31l8 -308q8 -252 9 -300q78 63 170 63q107 0 199 -86t104 -195q11 -192 20 -372q-18 -77 -51 -108.5t-90 -31.5q-41 0 -68.5 20t-41 58.5t-18.5 82t-5 104.5q0 73 2 110q0 1 1 25
t1 44t-2.5 44.5t-10 38.5t-20.5 14q-81 0 -124.5 -64.5t-43.5 -179.5v-94q0 -227 -117 -227q-48 0 -93 34t-46 87z" />
    <glyph glyph-name="i" unicode="i" horiz-adv-x="497" 
d="M141 621q0 24 0.5 39t3 38.5t7.5 38.5t15 32.5t24 27.5t35.5 17t49.5 7q58 0 88.5 -44t30.5 -99l-2 -506q0 -39 -12.5 -78t-43 -70.5t-73.5 -31.5q-72 0 -98.5 43.5t-26.5 116.5v16q0 1 1 3.5t1 4.5v445zM102 1100q0 110 142 110q56 -7 90.5 -52.5t34.5 -78.5
q0 -35 -17.5 -59.5t-43.5 -35.5t-45 -15t-32 -4q-54 0 -91.5 40.5t-37.5 94.5z" />
    <glyph glyph-name="j" unicode="j" horiz-adv-x="479" 
d="M33 -424q63 105 78.5 168t15.5 199v151q0 105 -4 301q-4 168 -4 262v25q0 63 34.5 100t84.5 37t90.5 -50t40.5 -144v-23q0 -90 4 -284t4 -304q0 -62 -4.5 -129t-20 -157.5t-40.5 -159.5t-72 -117.5t-109 -48.5q-40 0 -79.5 32t-39.5 79q0 29 21 63zM78 1090q0 35 38 78.5
t109 43.5q47 0 85 -53.5t38 -91.5q0 -131 -141 -131q-66 0 -97.5 42.5t-31.5 111.5z" />
    <glyph glyph-name="k" unicode="k" horiz-adv-x="1036" 
d="M150 123v2q-3 138 -27 481q-21 323 -21 457v10q0 31 0.5 50t3 50.5t7.5 51.5t14.5 44t23 37.5t34.5 23t48 9.5q50 0 82.5 -38.5t32.5 -83.5q0 -46 -4 -140q-8 -199 21 -442l30 29v-2l264 253q36 29 78 29q54 0 81.5 -33t27.5 -86q0 -24 -16 -53t-52.5 -67t-65 -65
t-81.5 -75q156 -208 303 -415q0 -58 -33 -87.5t-92 -29.5q-36 0 -68 21t-51.5 45.5t-54.5 74.5l-4 4q-50 59 -86 104t-59.5 76.5t-26.5 34.5l-8 8l-2 -2q-48 -34 -68 -51q0 -12 2.5 -67t3.5 -125q0 -71 -19 -101t-89 -55q-59 0 -93 38.5t-36 84.5z" />
    <glyph glyph-name="l" unicode="l" horiz-adv-x="491" 
d="M102 1229q0 53 37 90t88 37q27 0 48.5 -9t35.5 -21.5t24.5 -36t16 -42.5t9 -51.5t4.5 -51.5t2 -54q0 -14 -0.5 -59.5t-1 -114t5.5 -266.5t18 -488q0 -83 -28 -122.5t-103 -39.5q-117 0 -117 233v11q0 121 -12 434t-27 551z" />
    <glyph glyph-name="m" unicode="m" horiz-adv-x="1429" 
d="M186 209l-63 543q-21 86 -21 127q0 34 36.5 73t82.5 39q37 0 66 -29t45.5 -75.5t24.5 -79t12 -64.5l4 -49q94 138 207 133q42 -2 73 -20t48.5 -43t30.5 -51t29 -49t36 -31q17 -7 35.5 7t37.5 39.5t41 52t55 46t70 19.5q71 0 125.5 -37.5t84.5 -92t49.5 -126t25.5 -129
t6 -111.5v-20q0 -34 -0.5 -51t-3 -45.5t-7.5 -43t-14.5 -33.5t-23.5 -28.5t-36 -16t-50 -6.5q-107 0 -107 181q0 59 -1 82.5t-6 72t-19 85t-37 69.5q-15 1 -30 -7t-32 -32t-30.5 -61.5t-23.5 -102t-13 -147.5q-11 -37 -17 -56.5t-20 -48t-28.5 -43.5t-38.5 -26t-54 -11
q-31 0 -54.5 13.5t-38 38.5t-23.5 51.5t-13 62.5t-5 60.5t-1 56.5v14q0 252 -47 252h-12q-62 0 -99 -407l-8 -74q-28 -49 -59 -66.5t-78 -17.5q-18 0 -33 7t-25 15.5t-18.5 26.5t-13 31t-9 38t-6 37t-4.5 39q0 3 -1 9.5t-1 9.5z" />
    <glyph glyph-name="n" unicode="n" horiz-adv-x="946" 
d="M119 123q2 23 2 96q0 173 -19 594q1 61 38 92t89 31q49 0 86.5 -30t38.5 -83q0 -5 1 -23t1 -28q51 41 146 49h24q48 -3 87 -12.5t69 -23t53.5 -38.5t39.5 -49t27.5 -64.5t18.5 -75.5t11.5 -91.5t6 -102.5t3.5 -118l2 -90q-5 -127 -131 -127q-26 0 -45 9t-30 30t-18 40.5
t-10 56t-3.5 61t-0.5 69.5v49t-1 47t-4 47t-7 40.5t-11 37t-16.5 26.5t-23.5 19t-31 6q-1 0 -3 -1t-3 -1q-2 0 -6 1t-6 1h-13q-34 0 -56.5 -17t-32.5 -50.5t-13.5 -67t-3.5 -82.5q0 -3 1 -33.5t1 -70.5q0 -45 -2.5 -77.5t-11.5 -66t-24.5 -54.5t-42 -34.5t-63.5 -13.5
q-43 0 -78.5 27t-35.5 84v12z" />
    <glyph glyph-name="o" unicode="o" 
d="M479 -6q-95 0 -183 56.5t-141 148t-53 190.5q0 191 129.5 313.5t331.5 122.5q190 0 279 -140q75 -119 52 -285q-22 -165 -128 -279q-117 -127 -287 -127zM340 393q0 -73 40 -110t99 -37q74 0 132.5 50t58.5 130q0 63 -38 119.5t-81 56.5q-83 0 -147 -63t-64 -146z" />
    <glyph glyph-name="p" unicode="p" horiz-adv-x="1040" 
d="M102 -274l17 940q0 33 1 52t8.5 45.5t21.5 41t41 25t67 10.5q60 0 94 -86q64 52 145.5 61.5t157 -21.5t140.5 -84.5t104 -129t39 -152.5q0 -108 -27.5 -182t-86.5 -118.5t-134 -68t-188 -36.5q-87 3 -166 38q40 -396 -75 -427q-55 -16 -124 49q-27 26 -35 43zM692 430
q0 57 -42.5 96t-104.5 39q-83 0 -137 -55t-54 -123q0 -59 47.5 -97t143.5 -38q71 0 109 50t38 128z" />
    <glyph glyph-name="q" unicode="q" horiz-adv-x="987" 
d="M647 -436l-24 461q-63 -27 -129 -27q-161 0 -276.5 110t-115.5 275q0 107 45.5 203t134 158.5t199.5 62.5q62 0 119 -21q36 62 115 62q50 0 78.5 -28.5t35.5 -71.5v-23v-14q0 -36 17 -285q39 -604 39 -838q0 -123 -127 -123q-38 0 -73 25.5t-38 73.5zM344 375
q0 -55 50 -102.5t106 -47.5q39 0 65 33t34.5 72.5t8.5 81.5q0 72 -31 121t-92 49q-56 0 -98.5 -73.5t-42.5 -133.5z" />
    <glyph glyph-name="r" unicode="r" horiz-adv-x="845" 
d="M119 111q0 2 -2 16t-4.5 55.5t-4.5 113t-4 217t-2 339.5q0 56 36.5 87.5t92.5 31.5h15q32 0 54 -10t33.5 -23.5t17.5 -39t7.5 -46t1.5 -53.5v-4l19 4q1 0 4 1t4 1q90 24 150 24q33 0 56.5 -2t54 -10.5t49.5 -23.5t32.5 -44.5t13.5 -70.5q0 -51 -44 -76t-95 -25
q-12 2 -18 2q-25 5 -39 5q-65 0 -126 -25.5t-61 -67.5q0 -49 8.5 -142.5t8.5 -141.5q0 -31 -0.5 -46.5t-3 -42t-8 -39.5t-16.5 -30.5t-27 -26t-40.5 -14.5t-56.5 -6h-47q-59 50 -59 113z" />
    <glyph glyph-name="s" unicode="s" horiz-adv-x="811" 
d="M113 193v10q17 62 45 89t73 27q31 0 93 -34q76 -39 104 -39q13 0 22 8t9 22q0 22 -8.5 39.5t-25.5 29.5t-32 19.5t-39 17.5t-35 15q-48 20 -76.5 34.5t-66 43.5t-56 71t-18.5 97q0 61 51.5 126t123 105.5t129.5 40.5q37 0 80 -7.5t90 -24.5t77.5 -51t30.5 -80
q0 -62 -22 -83t-76 -26q-194 55 -226 23l50 -21q8 -4 14 -6q285 -133 285 -379q0 -130 -75 -196t-202 -66q-130 0 -221 57q-46 3 -72 37.5t-26 100.5z" />
    <glyph glyph-name="t" unicode="t" horiz-adv-x="927" 
d="M473 2q-56 0 -91.5 31t-35.5 86q0 142 -4 352.5t-4 321.5q-6 0 -23.5 -1t-31.5 -1q-85 0 -128 24t-53 107q15 52 46 80.5t60.5 35t72.5 6.5h57q0 7 1 23t1 23v104q0 21 5.5 44t17 47.5t34.5 40t54 15.5q10 0 39.5 -11.5t61 -38.5t32.5 -58l2 -184h61q38 0 65 -4.5t55 -18
t43 -42.5t15 -73q0 -41 -28.5 -71t-71.5 -43h-41q-56 0 -76 2h-22l8 -666q0 -61 -31.5 -96t-89.5 -35z" />
    <glyph glyph-name="u" unicode="u" horiz-adv-x="925" 
d="M584 25l-6 24l-7 12q-45 -34 -89.5 -51.5t-114.5 -17.5q-67 0 -120 40t-83.5 104.5t-46 136.5t-15.5 145q0 171 43 325q10 35 53.5 56.5t80.5 21.5q29 0 69.5 -39.5t40.5 -68.5q-41 -226 -41 -312q0 -139 55 -176q42 -28 88 21q65 68 76 217q6 78 -6 166q-2 17 -1.5 50
t-0.5 50q16 37 54 55.5t75 18.5q121 0 121 -176v-45q0 -54 -8 -164q-6 -77 -6 -156q0 -32 14 -90q14 -86 14 -127q0 -54 -42.5 -77t-100.5 -23q-37 0 -64 25t-32 55z" />
    <glyph glyph-name="v" unicode="v" horiz-adv-x="948" 
d="M158 520l-35 74q-21 44 -21 88q0 111 129 111q85 0 258 -379q4 10 9.5 23.5t9.5 23t7.5 18t5.5 12.5t1 3l8 24q11 33 15.5 45.5t15.5 43t17 44t17 39t19.5 37.5t20.5 31t23.5 28t25.5 19t29 14t32 4q48 0 74.5 -47t26.5 -98q-13 -34 -48 -137.5t-65.5 -183t-70.5 -168.5
t-83 -139t-83 -50q-54 0 -80 33t-111 200z" />
    <glyph glyph-name="w" unicode="w" horiz-adv-x="1329" 
d="M862 -8q-30 0 -64 34t-71.5 99.5t-64 120t-62.5 135.5l-4 -19q-23 -76 -37.5 -118.5t-47.5 -108.5t-75 -115q-19 -12 -43 -12q-33 0 -62 30.5t-55.5 93.5t-44.5 120t-43 149q-23 86 -55 181l-31 114q0 51 31 84t80 33q26 0 48 -12t35.5 -26.5t27.5 -43.5t20.5 -45.5
t17.5 -50.5q23 -97 39 -137q0 4 2 8l-2 -2q38 172 79.5 248.5t121.5 76.5q19 0 41 -19.5t46 -59t44 -77t45 -97t38.5 -93.5t35.5 -90q0 -2 3 -10q2 -5 1 -4l62 170q8 20 22.5 61t22.5 62q12 53 48.5 98t96.5 45q48 0 80 -32t39 -91q-53 -157 -101 -264q-20 -80 -33.5 -127.5
t-43.5 -119t-66 -122.5q-26 -67 -121 -67z" />
    <glyph glyph-name="x" unicode="x" 
d="M590 119l-72 76q-39 -65 -105.5 -138.5t-125.5 -109.5q-61 0 -103.5 42.5t-42.5 100.5q9 95 187 293l-29 29l-4 4l-10 14q-61 57 -122 144t-61 143q0 46 24 72t89 26q147 -53 279 -250v-2l202 264q18 23 49 16t62 -27t53.5 -50.5t22.5 -54.5q0 -6 -1 -12.5t-2 -11t-4 -11
t-4.5 -10t-5.5 -11t-5.5 -9.5t-6.5 -10t-6 -9q-2 -1 -12 -21l-91 -114q-61 -73 -75 -101l161 -170h-2l11 -16q61 -57 61 -121q0 -45 -39.5 -76.5t-85.5 -40.5q-36 7 -67 27.5t-47.5 38.5t-43.5 51q-1 1 -3 4t-3 4l-24 31z" />
    <glyph glyph-name="y" unicode="y" horiz-adv-x="954" 
d="M283 -414v11q2 27 16 94q43 181 121 438q-12 20 -30.5 46.5t-29 40.5t-40.5 52.5t-35 44.5v-2q-59 72 -91 116t-62 106t-30 112q0 46 36.5 82.5t82.5 36.5q37 0 65 -18.5t42.5 -40.5t36.5 -64q21 -47 139 -215l2 -2l12 -10q1 3 16.5 46t38 117t48.5 175q10 23 50.5 45
t65.5 22q48 0 81.5 -47.5t33.5 -93.5q-29 -100 -133 -452.5t-162 -561.5q-1 -2 -2 -7t-2 -7q-11 -39 -16.5 -55t-18 -44t-25.5 -39.5t-35.5 -21.5t-51.5 -10q-50 0 -81 28.5t-42 77.5z" />
    <glyph glyph-name="z" unicode="z" horiz-adv-x="874" 
d="M119 123l2 4q42 89 154.5 241t152.5 230q-106 8 -176 0h-6q-25 1 -38.5 2t-37 6.5t-36 14.5t-22.5 28t-10 45q0 66 34 95.5t116 37.5h18q247 0 396 -10q24 -16 36 -40.5t13.5 -40.5t1.5 -42q-14 -51 -45.5 -113.5t-63.5 -114.5t-119 -187q-6 -8 -15.5 -24.5t-12.5 -21.5
h22q35 3 148 3q54 0 97.5 -29t43.5 -84v-19q0 -45 -33 -77.5t-80 -32.5q-1 0 -3 1t-3 1l-20 2q-86 8 -146 8q-125 0 -235 -16q-51 0 -96 23.5t-45 72.5q0 24 8 37z" />
    <glyph glyph-name="Agrave" unicode="&#xc0;" horiz-adv-x="1107" 
d="M760 39l-4 24q-3 23 -14.5 141.5t-10.5 139.5q-28 4 -61 4q-42 0 -140 -4q-66 -4 -108 -4h-12l-17 -72q-6 -20 -17 -57t-17 -55.5t-16.5 -46.5t-20 -42.5t-23.5 -30t-31.5 -22t-38.5 -6.5q-127 0 -127 131q0 36 23 97l6 18v-2l14 45q2 6 6.5 17.5t6.5 17.5
q155 469 239 813l-2 -2l11 41q6 34 11.5 56t15 55t22.5 54.5t30.5 42.5t42.5 31.5t56 10.5q113 0 188 -314l234 -1036q-10 -55 -43.5 -84t-77.5 -29q-66 0 -125 68zM578 846l-7 20q-10 -36 -51 -157q-7 -23 -19 -57t-22 -68q103 0 158 6q-43 197 -59 256zM801 1620l-6 -16
q-32 -62 -99 -58l-6 2q-13 0 -27 5t-22 9.5t-29.5 19t-31.5 20.5q-24 15 -50.5 34.5t-56.5 46.5t-45 56t-6 51l2 4q13 28 54 46t79 15q54 -6 117 -51.5t100.5 -99.5t26.5 -84z" />
    <glyph glyph-name="Aacute" unicode="&#xc1;" horiz-adv-x="1107" 
d="M760 39l-4 24q-3 23 -14.5 141.5t-10.5 139.5q-28 4 -61 4q-42 0 -140 -4q-66 -4 -108 -4h-12l-17 -72q-6 -20 -17 -57t-17 -55.5t-16.5 -46.5t-20 -42.5t-23.5 -30t-31.5 -22t-38.5 -6.5q-127 0 -127 131q0 36 23 97l6 18v-2l14 45q2 6 6.5 17.5t6.5 17.5
q155 469 239 813l-2 -2l11 41q6 34 11.5 56t15 55t22.5 54.5t30.5 42.5t42.5 31.5t56 10.5q113 0 188 -314l234 -1036q-10 -55 -43.5 -84t-77.5 -29q-66 0 -125 68zM578 846l-7 20q-10 -36 -51 -157q-7 -23 -19 -57t-22 -68q103 0 158 6q-43 197 -59 256zM346 1595l-6 17
q-11 30 26.5 84t100.5 99.5t117 51.5q38 3 79 -15t54 -46l2 -4q9 -22 -6 -51t-45 -56t-56.5 -47.5t-50.5 -34.5q-10 -6 -26 -17t-23.5 -15.5t-19 -10.5t-21 -8t-20.5 -2l-7 -2q-67 -4 -98 57z" />
    <glyph glyph-name="Acircumflex" unicode="&#xc2;" horiz-adv-x="1107" 
d="M760 39l-4 24q-3 23 -14.5 141.5t-10.5 139.5q-28 4 -61 4q-42 0 -140 -4q-66 -4 -108 -4h-12l-17 -72q-6 -20 -17 -57t-17 -55.5t-16.5 -46.5t-20 -42.5t-23.5 -30t-31.5 -22t-38.5 -6.5q-127 0 -127 131q0 36 23 97l6 18v-2l14 45q2 6 6.5 17.5t6.5 17.5
q155 469 239 813l-2 -2l11 41q6 34 11.5 56t15 55t22.5 54.5t30.5 42.5t42.5 31.5t56 10.5q113 0 188 -314l234 -1036q-10 -55 -43.5 -84t-77.5 -29q-66 0 -125 68zM578 846l-7 20q-10 -36 -51 -157q-7 -23 -19 -57t-22 -68q103 0 158 6q-43 197 -59 256zM250 1589
q3 61 64.5 150t134.5 153t110 64q28 0 104.5 -79.5t139.5 -160.5t63 -90q-5 -94 -90 -94q-24 0 -44 7.5t-30 15.5t-28 24l-119 131q-18 -11 -56.5 -60.5t-82.5 -88.5t-90 -39q-76 0 -76 57v10z" />
    <glyph glyph-name="Atilde" unicode="&#xc3;" horiz-adv-x="1107" 
d="M760 39l-4 24q-3 23 -14.5 141.5t-10.5 139.5q-28 4 -61 4q-42 0 -140 -4q-66 -4 -108 -4h-12l-17 -72q-6 -20 -17 -57t-17 -55.5t-16.5 -46.5t-20 -42.5t-23.5 -30t-31.5 -22t-38.5 -6.5q-127 0 -127 131q0 36 23 97l6 18v-2l14 45q2 6 6.5 17.5t6.5 17.5
q155 469 239 813l-2 -2l11 41q6 34 11.5 56t15 55t22.5 54.5t30.5 42.5t42.5 31.5t56 10.5q113 0 188 -314l234 -1036q-10 -55 -43.5 -84t-77.5 -29q-66 0 -125 68zM578 846l-7 20q-10 -36 -51 -157q-7 -23 -19 -57t-22 -68q103 0 158 6q-43 197 -59 256zM664 1569
q-62 -7 -149 51q-51 34 -62 35q-15 2 -19 -18q-2 -9 -2 -23q0 -28 -16 -41.5t-54 -13.5q-33 0 -58.5 16t-39 40.5t-20 49t-6.5 47.5q14 88 73 127t133 39h7q64 0 142 -63q36 -29 44 -28q10 1 10 28q0 71 94 71q54 0 82.5 -37.5t28.5 -93.5q0 -76 -53.5 -131t-134.5 -55z" />
    <glyph glyph-name="Adieresis" unicode="&#xc4;" horiz-adv-x="1107" 
d="M760 39l-4 24q-3 23 -14.5 141.5t-10.5 139.5q-28 4 -61 4q-42 0 -140 -4q-66 -4 -108 -4h-12l-17 -72q-6 -20 -17 -57t-17 -55.5t-16.5 -46.5t-20 -42.5t-23.5 -30t-31.5 -22t-38.5 -6.5q-127 0 -127 131q0 36 23 97l6 18v-2l14 45q2 6 6.5 17.5t6.5 17.5
q155 469 239 813l-2 -2l11 41q6 34 11.5 56t15 55t22.5 54.5t30.5 42.5t42.5 31.5t56 10.5q113 0 188 -314l234 -1036q-10 -55 -43.5 -84t-77.5 -29q-66 0 -125 68zM578 846l-7 20q-10 -36 -51 -157q-7 -23 -19 -57t-22 -68q103 0 158 6q-43 197 -59 256zM303 1694
q0 27 31.5 60.5t89.5 33.5q36 0 65 -44t29 -75q0 -102 -115 -102q-52 0 -76 35.5t-24 91.5zM598 1702q0 32 31 68t65 36q69 0 101 -24t32 -105q0 -39 -27 -74.5t-65 -35.5q-53 0 -95 41.5t-42 93.5z" />
    <glyph glyph-name="Aring" unicode="&#xc5;" horiz-adv-x="1107" 
d="M365 1610q0 74 61.5 127t136.5 53q16 0 33 -1.5t50.5 -11t58 -26.5t44 -52t19.5 -83v-17q0 -163 -123 -192q81 -68 127 -287l234 -1036q-10 -55 -43.5 -84t-77.5 -29q-66 0 -125 68l-4 24q-3 23 -14.5 141.5t-10.5 139.5q-28 4 -61 4q-42 0 -140 -4q-66 -4 -108 -4h-12
l-17 -72q-6 -20 -17 -57t-17 -55.5t-16.5 -46.5t-20 -42.5t-23.5 -30t-31.5 -22t-38.5 -6.5q-127 0 -127 131q0 36 23 97l6 18v-2l27 80q155 469 239 813l-2 -2l11 41q9 52 18 87t31 77.5t53 62.5q-61 24 -102 80.5t-41 118.5zM578 846l-7 20q-10 -36 -51 -157
q-7 -23 -19 -57t-22 -68q103 0 158 6q-43 197 -59 256zM532 1602q0 -16 7.5 -28.5t19.5 -12.5q41 0 41 36q0 11 -16 24t-29 13q-11 0 -17 -10.5t-6 -21.5z" />
    <glyph glyph-name="AE" unicode="&#xc6;" horiz-adv-x="1691" 
d="M686 254l-2 94q-39 0 -125 -4q-66 -4 -108 -4h-13l-24 -72q-8 -19 -24 -56.5t-24.5 -55.5t-23 -47t-26 -43t-27.5 -29.5t-34.5 -22t-39.5 -6.5q-127 0 -111 131q6 37 35 97l11 18l-3 -2l385 893l-2 -2l17 41q18 57 35.5 96t47 79t73 60.5t100.5 20.5q44 0 299 -10
q221 -9 295 -9q30 0 51 -1.5t46.5 -8.5t42 -19.5t27.5 -35.5t11 -56q0 -74 -33 -100t-110 -26q-46 0 -111 6q-105 10 -231 10q-42 0 -156 -4v-387q0 -11 14 -11q16 0 121 5t200.5 10t96.5 4q59 0 92.5 -5t50 -21t20 -34t3.5 -55v-18q0 -45 -49 -76t-88 -31q-88 0 -213 -8
q-178 -12 -248 -14l12 -305q38 0 131 14h-2q198 27 281 27q233 0 233 -107q0 -34 -10 -58.5t-23 -37.5t-38.5 -21t-41 -10t-46.5 -4q-4 0 -10 -1t-9 -1q-429 -33 -559 -33q-43 0 -74.5 16t-48.5 38.5t-27 58.5t-12.5 65t-3.5 68zM541 584q119 0 137 2l-6 264l-2 16
q-10 -26 -72 -157q-26 -54 -57 -125z" />
    <glyph glyph-name="Ccedilla" unicode="&#xc7;" horiz-adv-x="1189" 
d="M393 -412q45 70 109 70q33 0 83 -25.5t83 -25.5q16 0 32.5 9t20.5 26q-2 35 -29.5 61t-65 42.5t-74.5 34t-60 47.5t-19 71l14 137q-61 15 -120 45q-128 64 -196.5 201t-68.5 288q0 91 13.5 179t41.5 179.5t78 172t118 149.5t166.5 119.5t217.5 73.5q40 8 74 8
q145 0 145 -150q0 -51 -33.5 -77.5t-80.5 -26.5q-95 0 -175.5 -34t-135.5 -92.5t-94 -136.5t-57 -165t-18 -180q0 -168 93 -252t264 -84q41 0 132 15.5t134 15.5q56 0 79 -27t23 -82q0 -166 -303 -166q-71 0 -106 2q3 -40 -6 -92q42 -17 61.5 -25.5t54.5 -26.5t53.5 -33.5
t38 -40t29.5 -52.5v2q17 -38 9 -90q-11 -65 -54 -111t-102.5 -67t-130.5 -21q-39 0 -79.5 6t-81 18.5t-63.5 37.5t-18 59z" />
    <glyph glyph-name="Egrave" unicode="&#xc8;" horiz-adv-x="1132" 
d="M127 250l-23 1020q-8 88 22 127t118 39q18 0 299 -11q196 -8 295 -8q30 0 51 -1.5t46.5 -8.5t42 -19.5t27.5 -35.5t11 -56q0 -74 -33.5 -100.5t-110.5 -26.5q-35 0 -110 7q-105 10 -232 10q-41 0 -155 -4v-387q0 -11 14 -11q16 0 121 5t200.5 10t96.5 4q59 0 92.5 -5
t50 -21t20 -34t3.5 -55v-18q0 -45 -49 -76t-88 -31q-88 0 -213 -8q-178 -12 -248 -14l12 -305q38 0 131 14h-2q191 26 281 26q233 0 233 -106q0 -34 -10.5 -58.5t-23 -37.5t-38 -21t-41.5 -10t-47 -4q-4 0 -9.5 -1t-8.5 -1q-429 -33 -559 -33q-43 0 -74.5 16t-48.5 38.5
t-27 58.5t-12.5 65t-3.5 68zM809 1599l-6 -16q-31 -61 -98 -57l-7 2q-13 0 -27.5 5t-21.5 8.5t-30 19t-31 20.5q-24 15 -50.5 34.5t-56.5 46.5t-45 56t-6 51l2 5q13 28 54 46t79 15q54 -6 117 -51.5t100.5 -100t26.5 -84.5z" />
    <glyph glyph-name="Eacute" unicode="&#xc9;" horiz-adv-x="1132" 
d="M127 250l-23 1020q-8 88 22 127t118 39q18 0 299 -11q196 -8 295 -8q30 0 51 -1.5t46.5 -8.5t42 -19.5t27.5 -35.5t11 -56q0 -74 -33.5 -100.5t-110.5 -26.5q-35 0 -110 7q-105 10 -232 10q-41 0 -155 -4v-387q0 -11 14 -11q16 0 121 5t200.5 10t96.5 4q59 0 92.5 -5
t50 -21t20 -34t3.5 -55v-18q0 -45 -49 -76t-88 -31q-88 0 -213 -8q-178 -12 -248 -14l12 -305q38 0 131 14h-2q191 26 281 26q233 0 233 -106q0 -34 -10.5 -58.5t-23 -37.5t-38 -21t-41.5 -10t-47 -4q-4 0 -9.5 -1t-8.5 -1q-429 -33 -559 -33q-43 0 -74.5 16t-48.5 38.5
t-27 58.5t-12.5 65t-3.5 68zM354 1575l-6 16q-11 30 26.5 84.5t100.5 100t117 51.5q38 3 79 -15.5t54 -46.5l2 -4q9 -22 -6 -51t-45 -56t-56.5 -46.5t-50.5 -34.5q-10 -6 -26 -17t-23.5 -15.5t-19 -10.5t-21 -8t-20.5 -2l-6 -2q-68 -4 -99 57z" />
    <glyph glyph-name="Ecircumflex" unicode="&#xca;" horiz-adv-x="1132" 
d="M127 250l-23 1020q-8 88 22 127t118 39q18 0 299 -11q196 -8 295 -8q30 0 51 -1.5t46.5 -8.5t42 -19.5t27.5 -35.5t11 -56q0 -74 -33.5 -100.5t-110.5 -26.5q-35 0 -110 7q-105 10 -232 10q-41 0 -155 -4v-387q0 -11 14 -11q16 0 121 5t200.5 10t96.5 4q59 0 92.5 -5
t50 -21t20 -34t3.5 -55v-18q0 -45 -49 -76t-88 -31q-88 0 -213 -8q-178 -12 -248 -14l12 -305q38 0 131 14h-2q191 26 281 26q233 0 233 -106q0 -34 -10.5 -58.5t-23 -37.5t-38 -21t-41.5 -10t-47 -4q-4 0 -9.5 -1t-8.5 -1q-429 -33 -559 -33q-43 0 -74.5 16t-48.5 38.5
t-27 58.5t-12.5 65t-3.5 68zM258 1569q2 46 40.5 111.5t88.5 120.5t101.5 94.5t78.5 39.5q28 0 104.5 -79t139.5 -160t63 -90q-5 -95 -90 -95q-24 0 -44 8t-30 15.5t-28 24.5l-119 131q-16 -10 -43.5 -43t-52 -64t-61 -56.5t-72.5 -25.5q-76 0 -76 58v10z" />
    <glyph glyph-name="Edieresis" unicode="&#xcb;" horiz-adv-x="1132" 
d="M127 250l-23 1020q-8 88 22 127t118 39q18 0 299 -11q196 -8 295 -8q30 0 51 -1.5t46.5 -8.5t42 -19.5t27.5 -35.5t11 -56q0 -74 -33.5 -100.5t-110.5 -26.5q-35 0 -110 7q-105 10 -232 10q-41 0 -155 -4v-387q0 -11 14 -11q16 0 121 5t200.5 10t96.5 4q59 0 92.5 -5
t50 -21t20 -34t3.5 -55v-18q0 -45 -49 -76t-88 -31q-88 0 -213 -8q-178 -12 -248 -14l12 -305q38 0 131 14h-2q191 26 281 26q233 0 233 -106q0 -34 -10.5 -58.5t-23 -37.5t-38 -21t-41.5 -10t-47 -4q-4 0 -9.5 -1t-8.5 -1q-429 -33 -559 -33q-43 0 -74.5 16t-48.5 38.5
t-27 58.5t-12.5 65t-3.5 68zM311 1673q0 27 31.5 60.5t89.5 33.5q36 0 65 -43.5t29 -74.5q0 -103 -114 -103q-52 0 -76.5 35.5t-24.5 91.5zM606 1681q0 32 31 68.5t65 36.5q70 0 102 -24t32 -105q0 -39 -27.5 -75t-65.5 -36q-53 0 -95 42t-42 93z" />
    <glyph glyph-name="Igrave" unicode="&#xcc;" horiz-adv-x="995" 
d="M102 168q0 72 203 72q16 0 45 -1t41 -1h17q0 42 4 182q12 365 10 762h-51q-54 0 -82.5 1t-55.5 7t-36.5 13t-18 26t-9.5 39t-1 59q0 47 31 77t77 30q65 -5 126 -4.5t175.5 3.5t151.5 3q98 0 131 -29t33 -123q0 -98 -141 -98h-45q-27 0 -39 -2q0 -17 2 -225t1 -421.5
t-9 -283.5q18 2 61 2q57 0 84 -4q26 -5 45.5 -38.5t27 -65t7.5 -48.5q0 -27 -21 -47t-60.5 -31t-81.5 -18t-99 -8.5t-96 -1.5t-90.5 1t-65.5 1q-271 0 -271 94v78zM752 1612l-7 -17q-31 -61 -98 -57l-6 2q-11 0 -20.5 2t-21.5 8t-19 10.5t-24 15.5t-26 17q-24 14 -50.5 34.5
t-56 47.5t-44.5 56t-6 51l2 4q13 28 54 46t79 15q54 -6 117 -51.5t100.5 -99.5t26.5 -84z" />
    <glyph glyph-name="Iacute" unicode="&#xcd;" horiz-adv-x="995" 
d="M102 168q0 72 203 72q16 0 45 -1t41 -1h17q0 42 4 182q12 365 10 762h-51q-54 0 -82.5 1t-55.5 7t-36.5 13t-18 26t-9.5 39t-1 59q0 47 31 77t77 30q65 -5 126 -4.5t175.5 3.5t151.5 3q98 0 131 -29t33 -123q0 -98 -141 -98h-45q-27 0 -39 -2q0 -17 2 -225t1 -421.5
t-9 -283.5q18 2 61 2q57 0 84 -4q26 -5 45.5 -38.5t27 -65t7.5 -48.5q0 -27 -21 -47t-60.5 -31t-81.5 -18t-99 -8.5t-96 -1.5t-90.5 1t-65.5 1q-271 0 -271 94v78zM297 1587l-6 17q-11 30 26.5 84t100.5 99.5t117 51.5q38 3 79 -15t54 -46l2 -4q9 -22 -6 -51t-45 -56
t-56.5 -47.5t-50.5 -34.5q-9 -6 -26 -17t-24 -15.5t-19 -10.5t-21.5 -8t-20.5 -2l-6 -2q-67 -4 -98 57z" />
    <glyph glyph-name="Icircumflex" unicode="&#xce;" horiz-adv-x="995" 
d="M102 168q0 72 203 72q16 0 45 -1t41 -1h17q0 42 4 182q12 365 10 762h-51q-54 0 -82.5 1t-55.5 7t-36.5 13t-18 26t-9.5 39t-1 59q0 47 31 77t77 30q65 -5 126 -4.5t175.5 3.5t151.5 3q98 0 131 -29t33 -123q0 -98 -141 -98h-45q-27 0 -39 -2q0 -17 2 -225t1 -421.5
t-9 -283.5q18 2 61 2q57 0 84 -4q26 -5 45.5 -38.5t27 -65t7.5 -48.5q0 -27 -21 -47t-60.5 -31t-81.5 -18t-99 -8.5t-96 -1.5t-90.5 1t-65.5 1q-271 0 -271 94v78zM201 1581q3 61 64.5 150t134.5 153t110 64q28 0 104.5 -79.5t139.5 -160.5t63 -90q-5 -94 -90 -94
q-24 0 -44 7.5t-30 15.5t-28 24l-119 131q-16 -10 -43.5 -43t-52.5 -64t-61.5 -56.5t-72.5 -25.5q-75 0 -75 58v10z" />
    <glyph glyph-name="Idieresis" unicode="&#xcf;" horiz-adv-x="995" 
d="M102 168q0 72 203 72q16 0 45 -1t41 -1h17q0 42 4 182q12 365 10 762h-51q-54 0 -82.5 1t-55.5 7t-36.5 13t-18 26t-9.5 39t-1 59q0 47 31 77t77 30q65 -5 126 -4.5t175.5 3.5t151.5 3q98 0 131 -29t33 -123q0 -98 -141 -98h-45q-27 0 -39 -2q0 -17 2 -225t1 -421.5
t-9 -283.5q18 2 61 2q57 0 84 -4q26 -5 45.5 -38.5t27 -65t7.5 -48.5q0 -27 -21 -47t-60.5 -31t-81.5 -18t-99 -8.5t-96 -1.5t-90.5 1t-65.5 1q-271 0 -271 94v78zM254 1686q0 27 31.5 60.5t89.5 33.5q36 0 65 -44t29 -75q0 -102 -115 -102q-52 0 -76 35.5t-24 91.5z
M549 1694q0 32 31 68t65 36q69 0 101 -24t32 -105q0 -39 -27 -74.5t-65 -35.5q-54 0 -95.5 41.5t-41.5 93.5z" />
    <glyph glyph-name="Ntilde" unicode="&#xd1;" horiz-adv-x="1140" 
d="M104 213q0 72 1 221t1 225q3 231 3 459v60q0 9 -1.5 29t-1.5 30q0 57 32.5 102t92.5 45q30 0 55 -9t43 -27.5t27.5 -32t22.5 -35.5v2q197 -318 393 -739l-16 745q0 55 28 96t86 41h9q35 -1 60.5 -17t39.5 -39.5t22.5 -60t11 -68t3.5 -75.5l18 -860q3 -50 3 -91t-1.5 -71
t-8 -53.5t-11.5 -38.5t-16 -25t-18 -15t-22 -7.5t-22.5 -3t-24.5 -0.5h-10q-4 0 -14 4.5t-33 21t-51 42.5t-69.5 76.5t-87 115.5t-105 166.5t-121.5 222.5l-53 105q30 -322 4 -664q-19 -42 -60 -63t-86 -23q-62 8 -93.5 54.5t-31.5 109.5q0 1 1 3t1 3v39zM647 1487
q-62 -7 -149 52q-50 33 -62 34q-15 2 -19 -21q-1 -9 -1 -20q0 -28 -16 -41.5t-54 -13.5q-63 0 -94 50t-31 103q14 88 73 127t134 39h6q15 0 31.5 -3.5t27.5 -7.5t27 -13t22.5 -13.5t22 -16.5t17.5 -13q15 -13 21.5 -17.5t14.5 -6.5t10.5 5t2.5 23q0 71 94 71
q54 0 82.5 -37.5t28.5 -93.5q0 -75 -54 -130.5t-135 -55.5z" />
    <glyph glyph-name="Ograve" unicode="&#xd2;" horiz-adv-x="1488" 
d="M102 702q0 99 28.5 202t84 197t130 167.5t175.5 117.5t211 44q182 0 331.5 -85t236.5 -236.5t87 -338.5q0 -174 -48 -320t-134 -246.5t-207 -156t-264 -55.5q-121 0 -236.5 58t-202 153.5t-139.5 227t-53 271.5zM758 244q85 0 156 50.5t114.5 130.5t67.5 172.5t24 182.5
q0 115 -56.5 209.5t-148.5 146.5t-198 52q-95 0 -179.5 -76.5t-131 -185t-46.5 -211.5q0 -64 14.5 -129t45.5 -127t75.5 -109.5t110 -76.5t142.5 -29h10zM952 1612l-6 -17q-31 -61 -98 -57l-6 2q-11 0 -20.5 2t-21.5 8t-19 10.5t-24 15.5t-26 17q-24 14 -50.5 34.5
t-56.5 47.5t-45 56t-6 51l2 4q13 28 54.5 46t79.5 15q54 -6 117 -51.5t100 -99.5t26 -84z" />
    <glyph glyph-name="Oacute" unicode="&#xd3;" horiz-adv-x="1488" 
d="M102 702q0 99 28.5 202t84 197t130 167.5t175.5 117.5t211 44q182 0 331.5 -85t236.5 -236.5t87 -338.5q0 -174 -48 -320t-134 -246.5t-207 -156t-264 -55.5q-121 0 -236.5 58t-202 153.5t-139.5 227t-53 271.5zM758 244q85 0 156 50.5t114.5 130.5t67.5 172.5t24 182.5
q0 115 -56.5 209.5t-148.5 146.5t-198 52q-95 0 -179.5 -76.5t-131 -185t-46.5 -211.5q0 -64 14.5 -129t45.5 -127t75.5 -109.5t110 -76.5t142.5 -29h10zM498 1587l-6 17q-11 30 26 84t100 99.5t117 51.5q38 3 79 -15t54 -46l2 -4q9 -22 -6 -51t-44.5 -56t-56 -47.5
t-50.5 -34.5q-9 -6 -26 -17t-24 -15.5t-19 -10.5t-21.5 -8t-20.5 -2l-6 -2q-67 -4 -98 57z" />
    <glyph glyph-name="Ocircumflex" unicode="&#xd4;" horiz-adv-x="1488" 
d="M102 702q0 99 28.5 202t84 197t130 167.5t175.5 117.5t211 44q182 0 331.5 -85t236.5 -236.5t87 -338.5q0 -174 -48 -320t-134 -246.5t-207 -156t-264 -55.5q-121 0 -236.5 58t-202 153.5t-139.5 227t-53 271.5zM758 244q85 0 156 50.5t114.5 130.5t67.5 172.5t24 182.5
q0 115 -56.5 209.5t-148.5 146.5t-198 52q-95 0 -179.5 -76.5t-131 -185t-46.5 -211.5q0 -64 14.5 -129t45.5 -127t75.5 -109.5t110 -76.5t142.5 -29h10zM401 1581q3 61 65 150t135 153t110 64q28 0 104.5 -79.5t139.5 -160.5t63 -90q-5 -94 -90 -94q-24 0 -44 7.5t-31 15.5
t-28 24l-118 131q-16 -10 -43.5 -43t-52.5 -64t-61.5 -56.5t-72.5 -25.5q-76 0 -76 58v10z" />
    <glyph glyph-name="Otilde" unicode="&#xd5;" horiz-adv-x="1488" 
d="M102 702q0 99 28.5 202t84 197t130 167.5t175.5 117.5t211 44q182 0 331.5 -85t236.5 -236.5t87 -338.5q0 -174 -48 -320t-134 -246.5t-207 -156t-264 -55.5q-121 0 -236.5 58t-202 153.5t-139.5 227t-53 271.5zM758 244q85 0 156 50.5t114.5 130.5t67.5 172.5t24 182.5
q0 115 -56.5 209.5t-148.5 146.5t-198 52q-95 0 -179.5 -76.5t-131 -185t-46.5 -211.5q0 -64 14.5 -129t45.5 -127t75.5 -109.5t110 -76.5t142.5 -29h10zM815 1561q-62 -7 -150 52q-3 2 -10 7q-45 30 -57 27q-14 -5 -14 -41q0 -56 -70 -56q-63 0 -94 50.5t-31 103.5
q14 88 73 127t134 39h6q64 0 142 -63q37 -30 45 -29q10 1 10 28q0 31 21.5 51.5t72.5 20.5q54 0 82.5 -37.5t28.5 -93.5q0 -75 -54 -130.5t-135 -55.5z" />
    <glyph glyph-name="Odieresis" unicode="&#xd6;" horiz-adv-x="1488" 
d="M102 702q0 99 28.5 202t84 197t130 167.5t175.5 117.5t211 44q182 0 331.5 -85t236.5 -236.5t87 -338.5q0 -174 -48 -320t-134 -246.5t-207 -156t-264 -55.5q-121 0 -236.5 58t-202 153.5t-139.5 227t-53 271.5zM758 244q85 0 156 50.5t114.5 130.5t67.5 172.5t24 182.5
q0 115 -56.5 209.5t-148.5 146.5t-198 52q-95 0 -179.5 -76.5t-131 -185t-46.5 -211.5q0 -64 14.5 -129t45.5 -127t75.5 -109.5t110 -76.5t142.5 -29h10zM455 1686q0 27 31 60.5t89 33.5q36 0 65.5 -44t29.5 -75q0 -102 -115 -102q-52 0 -76 35.5t-24 91.5zM750 1694
q0 32 31 68t65 36q69 0 101 -24t32 -105q0 -39 -27 -74.5t-65 -35.5q-53 0 -95 41.5t-42 93.5z" />
    <glyph glyph-name="Oslash" unicode="&#xd8;" horiz-adv-x="1488" 
d="M831 1446l3 8q15 38 41 60t57 22q27 0 45 -10q59 -45 59 -144q0 -16 -2 -24q161 -81 256.5 -236.5t95.5 -351.5q0 -174 -48 -320t-134 -246.5t-207 -156t-264 -55.5q-53 0 -121 14q-39 -80 -88 -80q-41 0 -71.5 37.5t-30.5 104.5v24q-143 96 -231.5 260t-88.5 350
q0 99 28.5 202t84 197t130 167.5t175.5 117.5t211 44q24 0 94 -9q0 1 1 2t1 2q4 4 4 21zM758 244q85 0 156 50.5t114.5 130.5t67.5 172.5t24 182.5q0 97 -41 180t-112 140q-21 -67 -57.5 -181.5t-97.5 -303.5t-118 -367q32 -4 54 -4h10zM360 715q0 -99 33.5 -196.5
t98.5 -166.5q22 71 111.5 343.5t154.5 490.5q-7 0 -20.5 1t-20.5 1q-95 0 -179.5 -76.5t-131 -185t-46.5 -211.5z" />
    <glyph glyph-name="Ugrave" unicode="&#xd9;" horiz-adv-x="1314" 
d="M645 16q-115 0 -207.5 46t-154.5 125.5t-103.5 189.5t-59.5 233t-18 262q0 234 62 488q12 30 41 48t49.5 22t36.5 4q121 0 121 -136q0 -30 -6 -86q-17 -178 -17 -344q0 -596 260 -596q49 0 90 18t70.5 53.5t52 79.5t37 103t24.5 116.5t14.5 129.5t6.5 131t2 131
q0 10 -1 82t-1 158q0 31 10 53t23.5 33.5t37 17.5t40.5 7t45 1q26 0 66 -22.5t40 -60.5q0 -49 3 -159.5t3 -176.5q0 -85 -3 -156.5t-11 -151.5t-21 -146t-35.5 -133.5t-52.5 -119.5t-73 -98.5t-96 -77.5t-123 -49t-152 -19zM924 1554l-6 -16q-31 -61 -99 -57l-6 2
q-11 0 -20.5 2t-21.5 8t-19 10.5t-24 15.5t-26 17q-24 14 -50.5 34t-56 47t-44.5 56t-6 51l2 5q13 28 54 46t79 15q54 -6 117 -51.5t100.5 -100t26.5 -84.5z" />
    <glyph glyph-name="Uacute" unicode="&#xda;" horiz-adv-x="1314" 
d="M645 16q-115 0 -207.5 46t-154.5 125.5t-103.5 189.5t-59.5 233t-18 262q0 234 62 488q12 30 41 48t49.5 22t36.5 4q121 0 121 -136q0 -30 -6 -86q-17 -178 -17 -344q0 -596 260 -596q49 0 90 18t70.5 53.5t52 79.5t37 103t24.5 116.5t14.5 129.5t6.5 131t2 131
q0 10 -1 82t-1 158q0 31 10 53t23.5 33.5t37 17.5t40.5 7t45 1q26 0 66 -22.5t40 -60.5q0 -49 3 -159.5t3 -176.5q0 -85 -3 -156.5t-11 -151.5t-21 -146t-35.5 -133.5t-52.5 -119.5t-73 -98.5t-96 -77.5t-123 -49t-152 -19zM469 1530l-6 16q-11 30 26.5 84.5t100.5 100
t117 51.5q38 3 79 -15.5t54 -46.5l2 -4q9 -22 -6 -51t-45 -56t-56.5 -46.5t-50.5 -34.5q-9 -6 -26 -17t-24 -15.5t-19 -10.5t-21.5 -8t-20.5 -2l-6 -2q-67 -4 -98 57z" />
    <glyph glyph-name="Ucircumflex" unicode="&#xdb;" horiz-adv-x="1314" 
d="M645 16q-115 0 -207.5 46t-154.5 125.5t-103.5 189.5t-59.5 233t-18 262q0 234 62 488q12 30 41 48t49.5 22t36.5 4q121 0 121 -136q0 -30 -6 -86q-17 -178 -17 -344q0 -596 260 -596q49 0 90 18t70.5 53.5t52 79.5t37 103t24.5 116.5t14.5 129.5t6.5 131t2 131
q0 10 -1 82t-1 158q0 31 10 53t23.5 33.5t37 17.5t40.5 7t45 1q26 0 66 -22.5t40 -60.5q0 -49 3 -159.5t3 -176.5q0 -85 -3 -156.5t-11 -151.5t-21 -146t-35.5 -133.5t-52.5 -119.5t-73 -98.5t-96 -77.5t-123 -49t-152 -19zM373 1524q2 46 40.5 111.5t88.5 120.5t101.5 94.5
t78.5 39.5q28 0 104.5 -79t139.5 -160t63 -90q-5 -95 -90 -95q-24 0 -44 7.5t-30 15.5t-28 24l-119 132q-16 -10 -43.5 -43t-52 -64t-61 -56.5t-72.5 -25.5q-76 0 -76 57v11z" />
    <glyph glyph-name="Udieresis" unicode="&#xdc;" horiz-adv-x="1314" 
d="M645 16q-115 0 -207.5 46t-154.5 125.5t-103.5 189.5t-59.5 233t-18 262q0 234 62 488q12 30 41 48t49.5 22t36.5 4q121 0 121 -136q0 -30 -6 -86q-17 -178 -17 -344q0 -596 260 -596q49 0 90 18t70.5 53.5t52 79.5t37 103t24.5 116.5t14.5 129.5t6.5 131t2 131
q0 10 -1 82t-1 158q0 31 10 53t23.5 33.5t37 17.5t40.5 7t45 1q26 0 66 -22.5t40 -60.5q0 -49 3 -159.5t3 -176.5q0 -85 -3 -156.5t-11 -151.5t-21 -146t-35.5 -133.5t-52.5 -119.5t-73 -98.5t-96 -77.5t-123 -49t-152 -19zM426 1628q0 27 31.5 60.5t89.5 33.5
q36 0 65 -43.5t29 -74.5q0 -103 -115 -103q-52 0 -76 35.5t-24 91.5zM721 1636q0 32 31 68.5t65 36.5q69 0 101 -24t32 -105q0 -39 -27 -75t-65 -36q-54 0 -95.5 41.5t-41.5 93.5z" />
    <glyph glyph-name="germandbls" unicode="&#xdf;" horiz-adv-x="1202" 
d="M154 -47q-15 240 -17 268q-36 568 -35 735q3 226 56 307q45 68 154 84q45 7 120 9q69 2 132 -20.5t106.5 -64t66 -94t12 -118t-56.5 -129.5q98 -5 181 -58.5t131.5 -135t76.5 -179t14 -193.5t-54.5 -175.5t-131 -129t-213.5 -49.5q-39 0 -78.5 8t-78.5 25.5t-63.5 52
t-24.5 80.5q0 50 21 74t56 23.5t69.5 -8t72 -18.5t53.5 -11q70 0 107.5 58t37.5 136q0 81 -28.5 136t-83.5 83t-118.5 38.5t-150.5 10.5q-114 0 -114 117q0 32 16 61.5t49 71.5v-2q25 32 38 50t26.5 47.5t13.5 54.5q0 14 -28.5 23t-55.5 9q-25 0 -42.5 -6.5t-29 -24.5
t-18 -37t-9.5 -57.5t-4 -71.5t-1 -93v-49q0 -199 39 -566q4 -51 8 -88q16 -106 16 -168q0 -50 -36 -74t-79 -24q-54 0 -76 17t-46 65z" />
    <glyph glyph-name="agrave" unicode="&#xe0;" horiz-adv-x="1011" 
d="M379 893q14 2 47 2q175 0 288.5 -97t123.5 -270q-4 -115 6.5 -204t25.5 -132t27.5 -76t12 -58t-20.5 -58q-26 -44 -78 -49t-96 23.5t-51 72.5q-108 -67 -267 -67q-295 0 -295 309q0 62 24.5 109t61 73.5t85.5 43t90 21.5t83 5q75 0 144 -19q-18 68 -72.5 113t-132.5 45
q-22 0 -66 -15.5t-69 -15.5q-38 0 -57 24t-19 62v13q0 32 4.5 49.5t23 39t62 35t115.5 21.5zM573 311q-110 2 -147 2q-96 0 -96 -37q0 -29 35.5 -45t74.5 -16q133 0 133 96zM748 1108l-7 -16q-32 -62 -98 -58l-6 2q-13 0 -27.5 5t-22 9.5t-30 19.5t-31.5 20q-24 14 -50.5 34
t-56 47t-44.5 56t-6 51l2 4q13 28 54 46t79 15q54 -6 117 -51.5t100.5 -99.5t26.5 -84z" />
    <glyph glyph-name="aacute" unicode="&#xe1;" horiz-adv-x="1011" 
d="M379 893q14 2 47 2q175 0 288.5 -97t123.5 -270q-4 -115 6.5 -204t25.5 -132t27.5 -76t12 -58t-20.5 -58q-26 -44 -78 -49t-96 23.5t-51 72.5q-108 -67 -267 -67q-295 0 -295 309q0 62 24.5 109t61 73.5t85.5 43t90 21.5t83 5q75 0 144 -19q-18 68 -72.5 113t-132.5 45
q-22 0 -66 -15.5t-69 -15.5q-38 0 -57 24t-19 62v13q0 32 4.5 49.5t23 39t62 35t115.5 21.5zM573 311q-110 2 -147 2q-96 0 -96 -37q0 -29 35.5 -45t74.5 -16q133 0 133 96zM293 1083l-6 17q-11 30 26 84t100 99.5t117 51.5q38 3 79.5 -15t54.5 -46l2 -4q9 -22 -6 -51
t-45 -56t-56.5 -47.5t-50.5 -34.5q-9 -6 -26 -17t-24 -15.5t-19 -10.5t-21.5 -8t-20.5 -2l-6 -2q-67 -4 -98 57z" />
    <glyph glyph-name="acircumflex" unicode="&#xe2;" horiz-adv-x="1011" 
d="M379 893q14 2 47 2q175 0 288.5 -97t123.5 -270q-4 -115 6.5 -204t25.5 -132t27.5 -76t12 -58t-20.5 -58q-26 -44 -78 -49t-96 23.5t-51 72.5q-108 -67 -267 -67q-295 0 -295 309q0 62 24.5 109t61 73.5t85.5 43t90 21.5t83 5q75 0 144 -19q-18 68 -72.5 113t-132.5 45
q-22 0 -66 -15.5t-69 -15.5q-38 0 -57 24t-19 62v13q0 32 4.5 49.5t23 39t62 35t115.5 21.5zM573 311q-110 2 -147 2q-96 0 -96 -37q0 -29 35.5 -45t74.5 -16q133 0 133 96zM197 1077q3 61 64.5 150t134.5 153t110 64q28 0 104.5 -79.5t139.5 -160.5t63 -90q-5 -94 -90 -94
q-24 0 -44 7.5t-30 15.5t-28 24l-119 131q-18 -11 -56.5 -60.5t-83 -88.5t-90.5 -39q-75 0 -75 57v10z" />
    <glyph glyph-name="atilde" unicode="&#xe3;" horiz-adv-x="1011" 
d="M379 893q14 2 47 2q175 0 288.5 -97t123.5 -270q-4 -115 6.5 -204t25.5 -132t27.5 -76t12 -58t-20.5 -58q-26 -44 -78 -49t-96 23.5t-51 72.5q-108 -67 -267 -67q-295 0 -295 309q0 62 24.5 109t61 73.5t85.5 43t90 21.5t83 5q75 0 144 -19q-18 68 -72.5 113t-132.5 45
q-22 0 -66 -15.5t-69 -15.5q-38 0 -57 24t-19 62v13q0 32 4.5 49.5t23 39t62 35t115.5 21.5zM573 311q-110 2 -147 2q-96 0 -96 -37q0 -29 35.5 -45t74.5 -16q133 0 133 96zM610 1057q-62 -7 -149 52q-50 33 -62 34q-15 2 -19 -21q-1 -9 -1 -20q0 -28 -16 -41.5t-54 -13.5
q-63 0 -94 50t-31 103q14 88 73 127t134 39h6q15 0 31.5 -3.5t27.5 -7.5t27 -13t22.5 -13.5t22 -16.5t17.5 -13q15 -13 21.5 -17.5t14.5 -6.5t10.5 5t2.5 23q0 71 94 71q54 0 82.5 -37.5t28.5 -93.5q0 -75 -54 -130.5t-135 -55.5z" />
    <glyph glyph-name="adieresis" unicode="&#xe4;" horiz-adv-x="1011" 
d="M379 893q14 2 47 2q175 0 288.5 -97t123.5 -270q-4 -115 6.5 -204t25.5 -132t27.5 -76t12 -58t-20.5 -58q-26 -44 -78 -49t-96 23.5t-51 72.5q-108 -67 -267 -67q-295 0 -295 309q0 62 24.5 109t61 73.5t85.5 43t90 21.5t83 5q75 0 144 -19q-18 68 -72.5 113t-132.5 45
q-22 0 -66 -15.5t-69 -15.5q-38 0 -57 24t-19 62v13q0 32 4.5 49.5t23 39t62 35t115.5 21.5zM573 311q-110 2 -147 2q-96 0 -96 -37q0 -29 35.5 -45t74.5 -16q133 0 133 96zM250 1182q0 27 31.5 60.5t89.5 33.5q36 0 65 -44t29 -75q0 -102 -115 -102q-52 0 -76 35.5
t-24 91.5zM545 1190q0 32 31 68t65 36q69 0 101 -24t32 -105q0 -39 -27 -74.5t-65 -35.5q-54 0 -95.5 41.5t-41.5 93.5z" />
    <glyph glyph-name="aring" unicode="&#xe5;" horiz-adv-x="1011" 
d="M379 893q14 2 47 2q175 0 288.5 -97t123.5 -270q-4 -115 6.5 -204t25.5 -132t27.5 -76t12 -58t-20.5 -58q-26 -44 -78 -49t-96 23.5t-51 72.5q-108 -67 -267 -67q-295 0 -295 309q0 62 24.5 109t61 73.5t85.5 43t90 21.5t83 5q75 0 144 -19q-18 68 -72.5 113t-132.5 45
q-22 0 -66 -15.5t-69 -15.5q-38 0 -57 24t-19 62v13q0 32 4.5 49.5t23 39t62 35t115.5 21.5zM573 311q-110 2 -147 2q-96 0 -96 -37q0 -29 35.5 -45t74.5 -16q133 0 133 96zM315 1249q0 74 62 127.5t137 53.5q16 0 33.5 -1.5t50.5 -11.5t58 -27t44 -52t19 -83v-16
q0 -103 -48 -151t-151 -48q-79 0 -142 65t-63 144zM483 1241q0 -16 7.5 -28.5t19.5 -12.5q41 0 41 37q0 11 -16 24t-29 13q-11 0 -17 -11t-6 -22z" />
    <glyph glyph-name="ae" unicode="&#xe6;" horiz-adv-x="1521" 
d="M1130 -27q-14 -2 -49 -2q-95 0 -176.5 41.5t-140.5 114.5q-113 -137 -344 -137q-86 0 -149.5 26.5t-99.5 74t-52.5 105.5t-16.5 128q0 65 26 114.5t64 77t89.5 44.5t94 22.5t85.5 5.5q77 0 149 -19q-18 71 -75 117.5t-138 46.5q-23 0 -69 -15.5t-72 -15.5q-39 0 -59.5 25
t-20.5 64v14q0 26 2.5 41t14 34.5t33.5 32t63.5 24.5t101.5 19q14 2 49 2q95 0 176.5 -41.5t139.5 -115.5q115 139 346 139q69 0 124 -18t90.5 -48.5t59 -73.5t33.5 -91t10 -103q0 -65 -26 -114.5t-63.5 -77t-89 -44.5t-94 -22.5t-85.5 -5.5q-82 0 -150 18q18 -71 74.5 -117
t138.5 -46q23 0 69.5 15t72.5 15q39 0 59.5 -24.5t20.5 -63.5v-14q0 -32 -5 -51t-24.5 -41t-65.5 -36.5t-121 -23.5zM928 582q114 -2 153 -2q101 0 101 38q0 31 -37 47.5t-78 16.5q-139 0 -139 -100zM561 344q-82 6 -121 6q-100 0 -100 -39q0 -31 37 -47t78 -16
q52 0 79 18.5t27 77.5z" />
    <glyph glyph-name="ccedilla" unicode="&#xe7;" horiz-adv-x="860" 
d="M201 -342q45 59 104 59q31 0 81 -22.5t81 -22.5q14 0 30.5 8.5t20.5 22.5q-2 30 -28.5 52t-63 36.5t-72 29.5t-57.5 40t-18 61l18 148q-87 55 -140 139.5t-53 183.5q-2 16 -2 37q0 100 70 192.5t174 145.5t205 53q34 0 66 -7t63.5 -22.5t50.5 -47t19 -74.5
q0 -101 -99 -101q-19 0 -53 12.5t-53 12.5q-66 0 -128.5 -59t-62.5 -123q0 -47 29.5 -84t73 -57t85.5 -30t76 -10h5q135 0 135 -81q0 -42 -21.5 -73.5t-55.5 -47.5t-67.5 -23.5t-64.5 -7.5h-17q-19 0 -55 4q0 -25 -6 -63q41 -15 59.5 -22t52 -22t51.5 -28.5t37 -34.5t29 -45
v2q17 -32 9 -78q-16 -82 -94.5 -126t-184.5 -44q-38 0 -76 5t-77 16t-61.5 32.5t-18.5 51.5z" />
    <glyph glyph-name="egrave" unicode="&#xe8;" horiz-adv-x="968" 
d="M578 -113q-14 -2 -50 -2q-121 0 -219.5 66.5t-152.5 177.5t-54 240q0 116 28 204.5t72 140.5t105.5 84.5t119 44t122.5 11.5q69 0 124 -18t90.5 -48.5t59 -73.5t33.5 -91t10 -103q0 -65 -26 -114.5t-63.5 -77t-89 -44.5t-94 -22.5t-85.5 -5.5q-82 0 -150 18
q18 -71 74.5 -117t138.5 -46q23 0 69.5 15t72.5 15q39 0 59.5 -24.5t20.5 -63.5v-14q0 -26 -2.5 -41t-14 -35t-33.5 -32.5t-63.5 -24.5t-101.5 -19zM375 496q114 -2 153 -2q101 0 101 38q0 31 -37 47.5t-78 16.5q-139 0 -139 -100zM743 1038l-6 -16q-31 -61 -98 -57l-6 2
q-11 0 -20.5 2t-21.5 8t-19 10.5t-24 15.5t-26 17q-24 14 -50.5 34t-56 47t-44.5 56t-6 51l2 4q13 28 54 46.5t79 15.5q54 -6 117 -51.5t100 -100t26 -84.5z" />
    <glyph glyph-name="eacute" unicode="&#xe9;" horiz-adv-x="968" 
d="M578 -113q-14 -2 -50 -2q-121 0 -219.5 66.5t-152.5 177.5t-54 240q0 116 28 204.5t72 140.5t105.5 84.5t119 44t122.5 11.5q69 0 124 -18t90.5 -48.5t59 -73.5t33.5 -91t10 -103q0 -65 -26 -114.5t-63.5 -77t-89 -44.5t-94 -22.5t-85.5 -5.5q-82 0 -150 18
q18 -71 74.5 -117t138.5 -46q23 0 69.5 15t72.5 15q39 0 59.5 -24.5t20.5 -63.5v-14q0 -26 -2.5 -41t-14 -35t-33.5 -32.5t-63.5 -24.5t-101.5 -19zM375 496q114 -2 153 -2q101 0 101 38q0 31 -37 47.5t-78 16.5q-139 0 -139 -100zM289 1014l-6 16q-11 30 26 84.5t100 100
t117 51.5q38 3 79 -15.5t54 -46.5l3 -4q9 -22 -6 -51t-45 -56t-56.5 -46.5t-50.5 -34.5q-10 -6 -26 -17t-24 -16t-19.5 -10.5t-21 -8t-20.5 -2.5l-6 -2q-66 -4 -98 58z" />
    <glyph glyph-name="ecircumflex" unicode="&#xea;" horiz-adv-x="968" 
d="M578 -113q-14 -2 -50 -2q-121 0 -219.5 66.5t-152.5 177.5t-54 240q0 116 28 204.5t72 140.5t105.5 84.5t119 44t122.5 11.5q69 0 124 -18t90.5 -48.5t59 -73.5t33.5 -91t10 -103q0 -65 -26 -114.5t-63.5 -77t-89 -44.5t-94 -22.5t-85.5 -5.5q-82 0 -150 18
q18 -71 74.5 -117t138.5 -46q23 0 69.5 15t72.5 15q39 0 59.5 -24.5t20.5 -63.5v-14q0 -26 -2.5 -41t-14 -35t-33.5 -32.5t-63.5 -24.5t-101.5 -19zM375 496q114 -2 153 -2q101 0 101 38q0 31 -37 47.5t-78 16.5q-139 0 -139 -100zM193 1008q2 46 40.5 111.5t88.5 120.5
t101.5 94.5t78.5 39.5q28 0 104.5 -79.5t139.5 -160.5t63 -90q-5 -94 -90 -94q-24 0 -44 7.5t-31 15.5t-28 24l-118 131q-18 -11 -56.5 -60.5t-83 -88.5t-90.5 -39q-75 0 -75 57v11z" />
    <glyph glyph-name="edieresis" unicode="&#xeb;" horiz-adv-x="968" 
d="M578 -113q-14 -2 -50 -2q-121 0 -219.5 66.5t-152.5 177.5t-54 240q0 116 28 204.5t72 140.5t105.5 84.5t119 44t122.5 11.5q69 0 124 -18t90.5 -48.5t59 -73.5t33.5 -91t10 -103q0 -65 -26 -114.5t-63.5 -77t-89 -44.5t-94 -22.5t-85.5 -5.5q-82 0 -150 18
q18 -71 74.5 -117t138.5 -46q23 0 69.5 15t72.5 15q39 0 59.5 -24.5t20.5 -63.5v-14q0 -26 -2.5 -41t-14 -35t-33.5 -32.5t-63.5 -24.5t-101.5 -19zM375 496q114 -2 153 -2q101 0 101 38q0 31 -37 47.5t-78 16.5q-139 0 -139 -100zM246 1112q0 27 31.5 60.5t89.5 33.5
q36 0 65 -44t29 -75q0 -102 -115 -102q-52 0 -76 35.5t-24 91.5zM541 1120q0 32 31 68.5t65 36.5q69 0 101 -24t32 -105q0 -39 -27 -75t-65 -36q-54 0 -95.5 41.5t-41.5 93.5z" />
    <glyph glyph-name="igrave" unicode="&#xec;" horiz-adv-x="497" 
d="M141 621q0 24 0.5 39t3 38.5t7.5 38.5t15 32.5t24 27.5t35.5 17t49.5 7q58 0 88.5 -44t30.5 -99l-2 -506q0 -39 -12.5 -78t-43 -70.5t-73.5 -31.5q-72 0 -98.5 43.5t-26.5 116.5v16q0 1 1 3.5t1 4.5v445zM485 1055l-6 -17q-31 -61 -98 -57l-6 2q-11 0 -20.5 2t-21.5 8
t-19 10.5t-24 15.5t-26 17q-24 14 -50.5 34.5t-56.5 47.5t-45 56t-6 51l3 4q13 28 54 46t79 15q54 -6 117 -51.5t100 -99.5t26 -84z" />
    <glyph glyph-name="iacute" unicode="&#xed;" horiz-adv-x="497" 
d="M141 621q0 24 0.5 39t3 38.5t7.5 38.5t15 32.5t24 27.5t35.5 17t49.5 7q58 0 88.5 -44t30.5 -99l-2 -506q0 -39 -12.5 -78t-43 -70.5t-73.5 -31.5q-72 0 -98.5 43.5t-26.5 116.5v16q0 1 1 3.5t1 4.5v445zM31 1030l-6 17q-11 30 26 84t100 99.5t117 51.5q38 3 79 -15
t54 -46l2 -4q9 -22 -6 -51t-44.5 -56t-56 -47.5t-50.5 -34.5q-9 -6 -26 -17t-24 -15.5t-19 -10.5t-21.5 -8t-20.5 -2l-6 -2q-67 -4 -98 57z" />
    <glyph glyph-name="icircumflex" unicode="&#xee;" horiz-adv-x="497" 
d="M141 621q0 24 0.5 39t3 38.5t7.5 38.5t15 32.5t24 27.5t35.5 17t49.5 7q58 0 88.5 -44t30.5 -99l-2 -506q0 -39 -12.5 -78t-43 -70.5t-73.5 -31.5q-72 0 -98.5 43.5t-26.5 116.5v16q0 1 1 3.5t1 4.5v445zM-66 1024q3 61 65 150t135 153t110 64q28 0 104.5 -79.5
t139.5 -160.5t63 -90q-5 -94 -90 -94q-24 0 -44 7.5t-31 15.5t-28 24l-118 131q-16 -10 -43.5 -43t-52.5 -64t-61.5 -56.5t-72.5 -25.5q-76 0 -76 58v10z" />
    <glyph glyph-name="idieresis" unicode="&#xef;" horiz-adv-x="497" 
d="M141 621q0 24 0.5 39t3 38.5t7.5 38.5t15 32.5t24 27.5t35.5 17t49.5 7q58 0 88.5 -44t30.5 -99l-2 -506q0 -39 -12.5 -78t-43 -70.5t-73.5 -31.5q-72 0 -98.5 43.5t-26.5 116.5v16q0 1 1 3.5t1 4.5v445zM-12 1128q0 27 31.5 61t89.5 34q36 0 65 -44t29 -75
q0 -103 -115 -103q-52 0 -76 35.5t-24 91.5zM283 1137q0 32 31 68t65 36q69 0 101 -24t32 -105q0 -39 -27 -75t-65 -36q-53 0 -95 42t-42 94z" />
    <glyph glyph-name="ntilde" unicode="&#xf1;" horiz-adv-x="946" 
d="M119 123q2 23 2 96q0 173 -19 594q1 61 38 92t89 31q49 0 86.5 -30t38.5 -83q0 -5 1 -23t1 -28q51 41 146 49h24q48 -3 87 -12.5t69 -23t53.5 -38.5t39.5 -49t27.5 -64.5t18.5 -75.5t11.5 -91.5t6 -102.5t3.5 -118l2 -90q-5 -127 -131 -127q-26 0 -45 9t-30 30t-18 40.5
t-10 56t-3.5 61t-0.5 69.5v49t-1 47t-4 47t-7 40.5t-11 37t-16.5 26.5t-23.5 19t-31 6q-1 0 -3 -1t-3 -1q-2 0 -6 1t-6 1h-13q-34 0 -56.5 -17t-32.5 -50.5t-13.5 -67t-3.5 -82.5q0 -3 1 -33.5t1 -70.5q0 -45 -2.5 -77.5t-11.5 -66t-24.5 -54.5t-42 -34.5t-63.5 -13.5
q-43 0 -78.5 27t-35.5 84v12zM553 1032q-62 -7 -149 52q-50 33 -62 34q-15 2 -19 -21q-1 -9 -1 -20q0 -28 -16 -41.5t-54 -13.5q-63 0 -94 50.5t-31 103.5q14 88 73 126.5t134 38.5h6q15 0 31.5 -3.5t27.5 -7.5t27 -13t22.5 -13.5t22 -16.5t17.5 -13q15 -13 21.5 -17.5
t14.5 -6.5t10.5 5t2.5 23q0 31 21.5 51.5t72.5 20.5q54 0 82 -37.5t28 -93.5q0 -76 -53.5 -131.5t-134.5 -55.5z" />
    <glyph glyph-name="ograve" unicode="&#xf2;" 
d="M479 -6q-95 0 -183 56.5t-141 148t-53 190.5q0 191 129.5 313.5t331.5 122.5q190 0 279 -140q75 -119 52 -285q-22 -165 -128 -279q-117 -127 -287 -127zM340 393q0 -73 40 -110t99 -37q74 0 132.5 50t58.5 130q0 63 -38 119.5t-81 56.5q-83 0 -147 -63t-64 -146z
M739 1010l-6 -17q-31 -61 -98 -57l-6 2q-11 0 -20.5 2t-21.5 8t-19 10.5t-24 15.5t-26 17q-24 14 -50.5 34.5t-56.5 47.5t-45 56t-6 51l2 4q13 28 54.5 46t79.5 15q54 -6 117 -51.5t100 -99.5t26 -84z" />
    <glyph glyph-name="oacute" unicode="&#xf3;" 
d="M479 -6q-95 0 -183 56.5t-141 148t-53 190.5q0 191 129.5 313.5t331.5 122.5q190 0 279 -140q75 -119 52 -285q-22 -165 -128 -279q-117 -127 -287 -127zM340 393q0 -73 40 -110t99 -37q74 0 132.5 50t58.5 130q0 63 -38 119.5t-81 56.5q-83 0 -147 -63t-64 -146z
M285 985l-6 16q-11 30 26 84.5t100 100t117 51.5q38 3 79 -15t54 -46l2 -5q9 -22 -6 -51t-44.5 -56t-56 -47t-50.5 -34q-9 -6 -26 -17t-24 -15.5t-19 -10.5t-21.5 -8t-20.5 -2l-6 -2q-67 -4 -98 57z" />
    <glyph glyph-name="ocircumflex" unicode="&#xf4;" 
d="M479 -6q-95 0 -183 56.5t-141 148t-53 190.5q0 191 129.5 313.5t331.5 122.5q190 0 279 -140q75 -119 52 -285q-22 -165 -128 -279q-117 -127 -287 -127zM340 393q0 -73 40 -110t99 -37q74 0 132.5 50t58.5 130q0 63 -38 119.5t-81 56.5q-83 0 -147 -63t-64 -146z
M188 979q3 61 65 150t135 153t110 64q28 0 104.5 -79.5t139.5 -160.5t63 -90q-5 -94 -90 -94q-24 0 -44 7.5t-31 15.5t-28 24l-118 131q-16 -10 -43.5 -43t-52.5 -64t-61.5 -56.5t-72.5 -25.5q-76 0 -76 58v10z" />
    <glyph glyph-name="otilde" unicode="&#xf5;" 
d="M479 -6q-95 0 -183 56.5t-141 148t-53 190.5q0 191 129.5 313.5t331.5 122.5q190 0 279 -140q75 -119 52 -285q-22 -165 -128 -279q-117 -127 -287 -127zM340 393q0 -73 40 -110t99 -37q74 0 132.5 50t58.5 130q0 63 -38 119.5t-81 56.5q-83 0 -147 -63t-64 -146z
M602 958q-22 -2 -45 2.5t-44 14.5t-37 20t-34 22q-17 12 -25 17t-19 9t-15.5 1t-8 -12.5t-3.5 -27.5q0 -56 -70 -56q-63 0 -94 50.5t-31 103.5q14 88 73 127t134 39h6q64 0 142 -63q37 -30 45 -29q10 1 10 28q0 31 21.5 51.5t72.5 20.5q54 0 82.5 -37.5t28.5 -93.5
q0 -76 -54 -131.5t-135 -55.5z" />
    <glyph glyph-name="odieresis" unicode="&#xf6;" 
d="M479 -6q-95 0 -183 56.5t-141 148t-53 190.5q0 191 129.5 313.5t331.5 122.5q190 0 279 -140q75 -119 52 -285q-22 -165 -128 -279q-117 -127 -287 -127zM340 393q0 -73 40 -110t99 -37q74 0 132.5 50t58.5 130q0 63 -38 119.5t-81 56.5q-83 0 -147 -63t-64 -146z
M242 1083q0 28 31 61.5t89 33.5q36 0 65.5 -44t29.5 -75q0 -103 -115 -103q-52 0 -76 35.5t-24 91.5zM537 1092q0 32 31 68t65 36q69 0 101 -24t32 -105q0 -39 -27 -75t-65 -36q-53 0 -95 42t-42 94z" />
    <glyph glyph-name="oslash" unicode="&#xf8;" 
d="M479 -6q-23 0 -73 8l-17 -51q-18 -46 -30.5 -66.5t-28.5 -17.5q-19 2 -28.5 30t-2.5 76q2 20 14 66q-92 53 -151.5 149.5t-59.5 200.5q0 191 129.5 313.5t331.5 122.5h15l30 97q4 4 4 14l2 6q23 57 52 51q12 0 20 -8q19 -36 12 -106l-16 -72q68 -22 116.5 -69t72 -108
t27.5 -132.5t-11.5 -141.5t-51 -136t-85.5 -116t-120.5 -80t-150.5 -30zM604 578l-115 -332q72 3 126.5 52.5t54.5 127.5q0 42 -19 84.5t-47 67.5zM340 393q0 -80 49 -119q80 223 113 322q-69 -19 -115.5 -76.5t-46.5 -126.5z" />
    <glyph glyph-name="ugrave" unicode="&#xf9;" horiz-adv-x="925" 
d="M584 25l-6 24l-7 12q-45 -34 -89.5 -51.5t-114.5 -17.5q-67 0 -120 40t-83.5 104.5t-46 136.5t-15.5 145q0 171 43 325q10 35 53.5 56.5t80.5 21.5q29 0 69.5 -39.5t40.5 -68.5q-41 -226 -41 -312q0 -139 55 -176q42 -28 88 21q65 68 76 217q6 78 -6 166q-2 17 -1.5 50
t-0.5 50q16 37 54 55.5t75 18.5q121 0 121 -176v-45q0 -54 -8 -164q-6 -77 -6 -156q0 -32 14 -90q14 -86 14 -127q0 -54 -42.5 -77t-100.5 -23q-37 0 -64 25t-32 55zM698 981l-6 -16q-32 -62 -98 -58l-6 2q-13 0 -27.5 5t-22 9.5t-30 19.5t-31.5 20q-24 15 -50.5 34.5
t-56.5 46.5t-45 56t-6 51l3 4q13 28 54 46.5t79 15.5q54 -6 117 -51.5t100 -100t26 -84.5z" />
    <glyph glyph-name="uacute" unicode="&#xfa;" horiz-adv-x="925" 
d="M584 25l-6 24l-7 12q-45 -34 -89.5 -51.5t-114.5 -17.5q-67 0 -120 40t-83.5 104.5t-46 136.5t-15.5 145q0 171 43 325q10 35 53.5 56.5t80.5 21.5q29 0 69.5 -39.5t40.5 -68.5q-41 -226 -41 -312q0 -139 55 -176q42 -28 88 21q65 68 76 217q6 78 -6 166q-2 17 -1.5 50
t-0.5 50q16 37 54 55.5t75 18.5q121 0 121 -176v-45q0 -54 -8 -164q-6 -77 -6 -156q0 -32 14 -90q14 -86 14 -127q0 -54 -42.5 -77t-100.5 -23q-37 0 -64 25t-32 55zM244 956l-6 17q-11 30 26 84t100 99.5t117 51.5q38 3 79 -15t54 -46l2 -4q9 -22 -6 -51t-44.5 -56
t-56 -47.5t-50.5 -34.5q-9 -6 -26 -17t-24 -15.5t-19 -10.5t-21.5 -8t-20.5 -2l-6 -2q-67 -4 -98 57z" />
    <glyph glyph-name="ucircumflex" unicode="&#xfb;" horiz-adv-x="925" 
d="M584 25l-6 24l-7 12q-45 -34 -89.5 -51.5t-114.5 -17.5q-67 0 -120 40t-83.5 104.5t-46 136.5t-15.5 145q0 171 43 325q10 35 53.5 56.5t80.5 21.5q29 0 69.5 -39.5t40.5 -68.5q-41 -226 -41 -312q0 -139 55 -176q42 -28 88 21q65 68 76 217q6 78 -6 166q-2 17 -1.5 50
t-0.5 50q16 37 54 55.5t75 18.5q121 0 121 -176v-45q0 -54 -8 -164q-6 -77 -6 -156q0 -32 14 -90q14 -86 14 -127q0 -54 -42.5 -77t-100.5 -23q-37 0 -64 25t-32 55zM147 950q3 61 65 150t135 153t110 64q28 0 104.5 -79.5t139.5 -160.5t63 -90q-5 -94 -90 -94
q-24 0 -44 7.5t-31 15.5t-28 24l-118 131q-18 -11 -56.5 -60.5t-83 -88.5t-90.5 -39q-76 0 -76 57v10z" />
    <glyph glyph-name="udieresis" unicode="&#xfc;" horiz-adv-x="925" 
d="M584 25l-6 24l-7 12q-45 -34 -89.5 -51.5t-114.5 -17.5q-67 0 -120 40t-83.5 104.5t-46 136.5t-15.5 145q0 171 43 325q10 35 53.5 56.5t80.5 21.5q29 0 69.5 -39.5t40.5 -68.5q-41 -226 -41 -312q0 -139 55 -176q42 -28 88 21q65 68 76 217q6 78 -6 166q-2 17 -1.5 50
t-0.5 50q16 37 54 55.5t75 18.5q121 0 121 -176v-45q0 -54 -8 -164q-6 -77 -6 -156q0 -32 14 -90q14 -86 14 -127q0 -54 -42.5 -77t-100.5 -23q-37 0 -64 25t-32 55zM201 1055q0 27 31.5 60.5t89.5 33.5q36 0 65 -44t29 -75q0 -102 -115 -102q-52 0 -76 35.5t-24 91.5z
M496 1063q0 32 31 68t65 36q69 0 101 -24t32 -105q0 -39 -27 -74.5t-65 -35.5q-53 0 -95 42t-42 93z" />
    <glyph glyph-name="Euro" unicode="&#x20ac;" horiz-adv-x="1306" 
d="M111 905q0 62 38.5 82t157.5 25q158 353 547 430q40 8 74 8q145 0 145 -150q0 -51 -34 -77.5t-81 -26.5q-224 0 -356 -180h19q156 4 245 4q131 0 131 -123q0 -45 -29 -67.5t-67 -22.5q-114 0 -326 -4q-13 0 -35.5 -1t-33.5 -1q-14 -47 -19 -84h60q136 4 213 4
q51 0 82.5 -29t31.5 -94q0 -45 -25.5 -67.5t-57.5 -22.5q-97 0 -285 -4q-3 0 -10.5 -1t-10.5 -1q46 -250 351 -250q40 0 131 15.5t135 15.5q56 0 79 -27t23 -82q0 -166 -303 -166q-131 0 -232 14.5t-186 57.5q-114 57 -181 171.5t-81 250.5q-20 0 -32 1t-30.5 6.5t-29.5 16
t-19 31t-8 49.5q0 55 25.5 76t99.5 27q2 37 13 92q-20 0 -35 1.5t-34 7t-31 16t-20.5 31t-8.5 48.5z" />
    </font>
</defs>
</svg>
